<svg id="svg" version="1.1" xmlns="http://www.w3.org/2000/svg" style="display: block" viewBox="0 0 614 630"><path  d="M0 0 C6.70622157 1.1898135 12.80164871 3.17428103 19 6 C14.60130541 7.46623153 12.07972138 5.77119918 7.8125 4.125 C5.62560547 3.29355469 5.62560547 3.29355469 3.39453125 2.4453125 C2.27433594 1.96835937 1.15414062 1.49140625 0 1 C0 0.67 0 0.34 0 0 Z " transform="translate(210,561)" style="fill: #128ba6;"/><path d="M0 0 C7.83793237 1.11970462 13.75594898 3.8504126 21 7 C24.30969573 8.07565111 27.64446672 9.07722835 31 10 C33.289375 10.66 35.57875 11.32 37.9375 12 C42.48389076 13.28747349 47.04603632 14.52116019 51.625 15.6875 C53.06875 16.120625 54.5125 16.55375 56 17 C40.13907975 20.96523006 14.17110873 7.35664191 0 1 C0 0.67 0 0.34 0 0 Z " transform="translate(197,559)" style="fill: #128ba6;"/><path d="M0 0 C4.16401999 1.38800666 8.28871428 2.89753501 12.375 4.5 C18.48069846 6.95987234 18.48069846 6.95987234 22.9140625 7.9453125 C27.19087644 9.04927021 30.97065449 10.57281226 35 12.375 C37.08634766 13.303125 37.08634766 13.303125 39.21484375 14.25 C42.03206487 15.55249232 44.80942472 16.94189232 47.5625 18.375 C51.43812174 20.41405205 51.43812174 20.41405205 58 21 C58.99 20.67 59.98 20.34 61 20 C64.29246466 20.7897165 67.56009267 21.68381869 70.8125 22.625 C84.38500921 26.44060056 98.03053842 30.00436263 112 32 C112.66 32.33 113.32 32.66 114 33 C115.77375 33.144375 117.5475 33.28875 119.375 33.4375 C121.664375 33.7159375 121.664375 33.7159375 124 34 C117.32513561 37.33743219 110.07723602 35.14882038 102.875 34.25 C101.3075 34.06695313 99.74 33.88390625 98.125 33.6953125 C90.33080962 32.76211264 82.68577634 31.61990359 75 30 C72.89625 29.773125 70.7925 29.54625 68.625 29.3125 C58.93052562 27.643779 50.17615108 24.47782008 41 21 C38.545625 20.071875 36.09125 19.14375 33.5625 18.1875 C22.09882644 13.52131824 10.61724412 8.37034647 0 2 C0 1.34 0 0.68 0 0 Z " transform="translate(163,554)" style="fill: #128ba6;"/><path d="M0 0 C5.54971554 2.21988621 10.22466508 5.29442474 15.21875 8.546875 C22.64480329 13.36460378 30.07512157 18.03756078 38 22 C38.99 22.99 39.98 23.98 41 25 C26.76493728 22.15298746 12.62239841 10.54176269 1 2 C0.67 1.34 0.34 0.68 0 0 Z " transform="translate(142,534)" style="fill: #128ba6;"/><path d="M0 0 C0 0.99 0 1.98 0 3 C-2.97 5.475 -2.97 5.475 -6 8 C-6.99 7.67 -7.98 7.34 -9 7 C-4.6875 3.25 -4.6875 3.25 0 0 Z " transform="translate(455,509)" style="fill: #128ba6;"/><path d="M0 0 C3.14007243 3.14007243 4.99263056 6.05695289 7 10 C6.67 10.66 6.34 11.32 6 12 C3.24754155 8.00893524 1.18132871 4.72531485 0 0 Z " transform="translate(44,448)" style="fill: #128ba6;"/><path d="M0 0 C3 4 3 4 5 9 C4.67 9.99 4.34 10.98 4 12 C0 4 0 4 0 0 Z " transform="translate(61,400)" style="fill: #128ba6;"/><path d="M0 0 C2.58726292 5.17452585 3.45378927 10.2827108 4.6875 15.9375 C6.97915939 25.69930154 10.02286481 33.26818387 15 42 C16.91908067 47.28956689 18.64504839 52.6142359 20.32421875 57.984375 C21.89983087 63.03866534 21.89983087 63.03866534 24.26953125 67.765625 C26 72 26 72 25 78 C9.53070798 62.53070798 2.85266661 25.55666621 0.125 4.125 C0.08375 2.76375 0.0425 1.4025 0 0 Z M23 70 C24 72 24 72 24 72 Z " transform="translate(11,360)" style="fill: #128ba6;"/><path d="M0 0 C2.96461731 5.92923462 4.32538858 12.3015271 6 18.6875 C6.53367187 20.69360352 6.53367187 20.69360352 7.078125 22.74023438 C11.02394941 37.66222331 11.02394941 37.66222331 12 43 C3.3903643 34.3903643 2.03347936 17.50862788 0 6 C0 4.02 0 2.04 0 0 Z " transform="translate(27,353)" style="fill: #128ba6;"/><path d="M0 0 C0 3 0 3 -1 5 C-1.66 5 -2.32 5 -3 5 C-3.33 5.99 -3.66 6.98 -4 8 C-12.25365284 13.91140001 -20.57439199 17.4447268 -30 21 C-31.65 21.66 -33.3 22.32 -35 23 C-30.81826151 18.81826151 -28.31854597 17.75602946 -22.875 15.75 C-15.47856883 12.83816843 -10.01484537 9.27455671 -4 4 C-3.34 4 -2.68 4 -2 4 C-1.34 2.68 -0.68 1.36 0 0 Z " transform="translate(348,327)" style="fill: #128ba6;"/><path d="M0 0 C0.33 0 0.66 0 1 0 C1.45652252 4.28761018 1.86246798 8.58060449 2.25 12.875 C4.87727613 39.60119152 9.48993455 67.54111091 21 92 C21.77214844 93.74410156 22.54429688 95.48820312 23.33984375 97.28515625 C34.99283387 123.20210721 48.33714794 147.65742395 66 170 C67.9490625 172.475 67.9490625 172.475 69.9375 175 C72.7047441 178.40583889 75.5643667 181.73818523 78.5 185 C79.655 186.32 80.81 187.64 82 189 C82 189.66 82 190.32 82 191 C82.66 191 83.32 191 84 191 C84 191.66 84 192.32 84 193 C84.66 193 85.32 193 86 193 C86 193.66 86 194.32 86 195 C86.66 195 87.32 195 88 195 C88.99 196.134375 89.98 197.26875 91 198.4375 C103.20657449 212.36062402 118.66851784 223.72790695 134 234 C135.8975 235.299375 137.795 236.59875 139.75 237.9375 C146.33406898 242.21714483 153.0652082 246.13101155 159.8984375 249.99609375 C160.92195312 250.65738281 161.94546875 251.31867188 163 252 C162.34 252.33 161.68 252.66 161 253 C137.47321473 241.85573329 116.00508207 228.67090172 96 212 C96 211.34 96 210.68 96 210 C94.02 209.01 94.02 209.01 92 208 C88.60941187 205.06486401 85.29254046 202.04471483 82 199 C80.65292969 197.76894531 79.30585937 196.53789063 77.91796875 195.26953125 C69.600573 187.58458115 62.07062108 179.83827634 55 171 C52.525 168.525 52.525 168.525 50 166 C48.80375 164.2675 47.6075 162.535 46.375 160.75 C43.61604973 155.87746843 43.61604973 155.87746843 40 155 C37.15346722 150.9856589 35.05659377 147.14350562 33.25 142.5625 C31.3558415 137.87971925 29.27638492 133.67781676 26.875 129.25 C5.07884861 88.55194027 5.07884861 88.55194027 2 67 C5.49325544 71.65767391 6.89907212 75.93875361 8.8125 81.4375 C11.82376654 89.88562209 15.06311327 97.94727715 19 106 C19.78503906 107.61261719 20.57007812 109.22523438 21.37890625 110.88671875 C21.91386719 111.91410156 22.44882812 112.94148438 23 114 C21.93650536 111.13043025 20.81337134 108.28317481 19.6875 105.4375 C6.88982081 72.08597242 -2.11250118 35.99377018 0 0 Z " transform="translate(19,318)" style="fill: #128ba6;"/><path d="M0 0 C0 0.99 0 1.98 0 3 C-3.375 5.25 -3.375 5.25 -7 7 C-7.66 6.67 -8.32 6.34 -9 6 C-4.625 2.75 -4.625 2.75 0 0 Z " transform="translate(336,250)" style="fill: #128ba6;"/><path d="M0 0 C0.66 0.33 1.32 0.66 2 1 C-3.25 4.625 -3.25 4.625 -9 8 C-9.66 7.67 -10.32 7.34 -11 7 C-3.71428571 1.85714286 -3.71428571 1.85714286 0 0 Z " transform="translate(324,248)" style="fill: #128ba6;"/><path d="M0 0 C0.33 0.99 0.66 1.98 1 3 C-6.58599528 11.01539124 -16.29852248 16.84640038 -26 22 C-26.66 21.67 -27.32 21.34 -28 21 C-21.16388839 14.99250798 -13.87344289 10.51174817 -6 6 C-5.01 5.01 -4.02 4.02 -3 3 C-2.34 3 -1.68 3 -1 3 C-0.67 2.01 -0.34 1.02 0 0 Z " transform="translate(342,240)" style="fill: #128ba6;"/><path d="M0 0 C1 4 1 4 -1 11 C-1.00547794 14.33332883 -1.00496401 17.66667036 -1 21 C-1.54496206 24.65865304 -2.17274331 28.30575645 -2.875 31.9375 C-3.22304688 33.76152344 -3.57109375 35.58554688 -3.9296875 37.46484375 C-4.60258783 40.9447699 -5.30710165 44.41888197 -6.05688477 47.88305664 C-7.16871316 55.09425531 -7.23121763 62.13369056 -7.16015625 69.40625 C-7.15495468 70.84850952 -7.14975311 72.29076904 -7.14439392 73.7767334 C-7.12668205 78.35126143 -7.09549802 82.92555876 -7.0625 87.5 C-7.03488403 92.10298218 -7.01020284 96.70593349 -6.99131775 101.30895996 C-6.97905409 104.16584113 -6.96144422 107.02270528 -6.93800354 109.8795166 C-6.88829485 119.66488456 -6.88829485 119.66488456 -8 123 C-7.979375 124.876875 -7.95875 126.75375 -7.9375 128.6875 C-7.958125 130.440625 -7.97875 132.19375 -8 134 C-8.66 134 -9.32 134 -10 134 C-11.86190173 127.58678292 -12.28129549 121.65732652 -12 115 C-11.67 115 -11.34 115 -11 115 C-10.97857835 109.06008166 -11.00820337 103.12684226 -11.0625 97.1875 C-11.14417741 80.99329769 -10.43687196 65.13369623 -9 49 C-8.86725662 46.29203515 -8.74092715 43.58373685 -8.625 40.875 C-7.99954007 33.99494079 -6.66993149 27.71371834 -4.98046875 21.03515625 C-4.11561199 17.47580551 -3.47717971 13.86307826 -2.875 10.25 C-2 5 -2 5 0 0 Z " transform="translate(24,212)" style="fill: #128ba6;"/><path d="M0 0 C1.70457615 5.11372845 -1.35631142 9.10092782 -3.31640625 13.8359375 C-12.66644128 36.96154618 -18.42709613 61.75786818 -24 86 C-24.66 87.98 -25.32 89.96 -26 92 C-28.05752704 105.71927038 -28.33390453 119.20520897 -28.3125 133.0625 C-28.32861328 135.12177734 -28.34472656 137.18105469 -28.36132812 139.30273438 C-28.36531948 152.03914142 -27.45409528 164.3341683 -25.64526367 176.94311523 C-25 182 -25 182 -25 189 C-25.33 189 -25.66 189 -26 189 C-26.72841387 185.30329961 -27.37984102 181.59139387 -28 177.875 C-28.350625 175.80992187 -28.70125 173.74484375 -29.0625 171.6171875 C-30.86042148 158.92685841 -31.15831684 146.35061239 -31.125 133.5625 C-31.12886719 132.08201172 -31.13273437 130.60152344 -31.13671875 129.07617188 C-31.09738225 84.29156104 -19.89342652 41.44842702 -1 1 C-0.67 0.67 -0.34 0.34 0 0 Z " transform="translate(34,175)" style="fill: #128ba6;"/><path d="M0 0 C0.99 0.99 1.98 1.98 3 3 C2.13001422 10.06863446 -0.52306429 15.82843911 -4 22 C-4.66 22 -5.32 22 -6 22 C-6.66 23.32 -7.32 24.64 -8 26 C-14.91911945 29.68588606 -21.79477995 32.91204855 -29 36 C-29.99 35.67 -30.98 35.34 -32 35 C-30.948125 34.443125 -29.89625 33.88625 -28.8125 33.3125 C-24.33375156 31.15836675 -24.33375156 31.15836675 -23 25 C-17.67832063 21.01207485 -11.7751535 17 -5 17 C-4.67 15.02 -4.34 13.04 -4 11 C-3.01 9.35 -2.02 7.7 -1 6 C-0.67 4.02 -0.34 2.04 0 0 Z M-8 20 C-8.99 21.485 -8.99 21.485 -10 23 C-9.01 22.67 -8.02 22.34 -7 22 C-7.33 21.34 -7.66 20.68 -8 20 Z " transform="translate(382,138)" style="fill: #128ba6;"/><path d="M0 0 C5 1 5 1 9 6 C9.495 8.97 9.495 8.97 10 12 C10.99 12.33 11.98 12.66 13 13 C15.53869461 18.07738922 15.40299824 21.35802458 15 27 C12.8125 31.8125 12.8125 31.8125 11 35 C11.99 34.01 12.98 33.02 14 32 C14.33 32.66 14.66 33.32 15 34 C12.70582117 37.03004751 10.36930595 40.02832812 8 43 C7.34 44.32 6.68 45.64 6 47 C-4.26666667 54 -4.26666667 54 -7 54 C-6.67 54.99 -6.34 55.98 -6 57 C-9.96332067 59.07173581 -13.96947663 61.06224838 -18 63 C-24.30066441 66.78039865 -24.90757652 67.78434521 -28 75 C-31.32734666 78.00663854 -34.66020427 81.00719603 -38 84 C-38 85.32 -38 86.64 -38 88 C-37.67 88 -37.34 88 -37 88 C-35.865625 86.453125 -34.73125 84.90625 -33.5625 83.3125 C-24.6287922 72.9102375 -12.84046435 71.17154326 0 68 C-8.49555207 70.12611198 -8.49555207 70.12611198 -13 69 C-12.67 68.67 -12.34 68.34 -12 68 C-12 67.34 -12 66.68 -12 66 C-7.08511709 63.63323046 -2.07373095 61.53190089 2.94140625 59.38671875 C8.26369604 56.87558434 12.82935121 54.17064879 17 50 C15.6448958 56.77552099 13.69326154 62.04906823 9.125 67.3125 C1.21115351 72.4684909 -7.75971959 73.91290819 -17 75 C-17.33 75.66 -17.66 76.32 -18 77 C-18.99 77.495 -18.99 77.495 -20 78 C-19.74848076 82.5136966 -19.74848076 82.5136966 -19 87 C-18.67 87.33 -18.34 87.66 -18 88 C-17.505 91.465 -17.505 91.465 -17 95 C-16.73006664 90.91725795 -16.47182789 86.83330878 -16.28125 82.74609375 C-16.1884375 81.50988281 -16.095625 80.27367187 -16 79 C-15.67 79 -15.34 79 -15 79 C-13.90045376 85.78053514 -14.04815369 90.17656351 -15.875 96.875 C-17.30791502 105.95012845 -14.73389709 109.34686636 -10 117 C-8.8251525 125.22393249 -9.15906715 130.03654713 -13.5625 137.125 C-17.32667741 141.36825454 -21.53495698 144.52718876 -26 148 C-25.01 148.33 -24.02 148.66 -23 149 C-22.34 149.66 -21.68 150.32 -21 151 C-19.35 150.67 -17.7 150.34 -16 150 C-20 153 -20 153 -25 156 C-23.35 155.67 -21.7 155.34 -20 155 C-23 159 -23 159 -27 161 C-25.72125 160.62875 -24.4425 160.2575 -23.125 159.875 C-21.083125 159.441875 -21.083125 159.441875 -19 159 C-21 163 -21 163 -25 165 C-24.67 165.99 -24.34 166.98 -24 168 C-22.02 166.68 -20.04 165.36 -18 164 C-17.34 164 -16.68 164 -16 164 C-17.95372903 169.86118708 -25.07974025 172.67296722 -30 176 C-30.66 176.66 -31.32 177.32 -32 178 C-30.14375 176.906875 -28.2875 175.81375 -26.375 174.6875 C-20 171 -20 171 -16 170 C-15.01 169.34 -14.02 168.68 -13 168 C-12.11325013 180.54117676 -14.03887612 188.69291072 -21.125 199 C-22.40375 200.65 -23.6825 202.3 -25 204 C-25.66 204.99 -26.32 205.98 -27 207 C-19.97549216 201.57197121 -17.12955685 197.18499485 -14 189 C-7.80380351 197.26159532 -5.54640058 206.90291386 -4 217 C-5.31272093 224.0011783 -7.87913155 227.22052278 -13 232 C-13 232.99 -13 233.98 -13 235 C-13.66 235.33 -14.32 235.66 -15 236 C-14.01 236.99 -13.02 237.98 -12 239 C-12 239.66 -12 240.32 -12 241 C-11.34 241 -10.68 241 -10 241 C-10 241.66 -10 242.32 -10 243 C-8.68 243.33 -7.36 243.66 -6 244 C-6 244.33 -6 244.66 -6 245 C-9.465 245.99 -9.465 245.99 -13 247 C-15.35125 248.5778125 -15.35125 248.5778125 -17.75 250.1875 C-19.85375 251.5796875 -19.85375 251.5796875 -22 253 C-22.99 252.67 -23.98 252.34 -25 252 C-27.68114138 253.6432802 -30.34697115 255.31170891 -33 257 C-34.65 257.33 -36.3 257.66 -38 258 C-33.39366094 259.32338083 -33.39366094 259.32338083 -26 259 C-30 261 -30 261 -33 262 C-30.04201234 264.06162776 -27.0354384 266.05420615 -24 268 C-23.01 268.99 -22.02 269.98 -21 271 C-21 271.66 -21 272.32 -21 273 C-21.66 273 -22.32 273 -23 273 C-22.360625 274.11375 -21.72125 275.2275 -21.0625 276.375 C-20.381875 277.57125 -19.70125 278.7675 -19 280 C-19.33 280.66 -19.66 281.32 -20 282 C-21.32 281.67 -22.64 281.34 -24 281 C-23.835 282.65 -23.67 284.3 -23.5 286 C-23.335 287.65 -23.17 289.3 -23 291 C-27 290 -27 290 -29 289 C-36.40545012 288.2531182 -36.40545012 288.2531182 -42 294 C-43.69631468 296.64790585 -45.36361254 299.31464621 -47 302 C-49.66666667 304.66666667 -52.33333333 307.33333333 -55 310 C-55 310.99 -55 311.98 -55 313 C-55.99 313 -56.98 313 -58 313 C-58 313.66 -58 314.32 -58 315 C-58.99 315 -59.98 315 -61 315 C-61.05761114 319.76444907 -61.05761114 319.76444907 -60.4375 325.9375 C-60.22738281 328.48339844 -60.01726562 331.02929688 -59.80078125 333.65234375 C-59.67396973 335.11655762 -59.5471582 336.58077148 -59.41650391 338.08935547 C-58.95259003 343.5589708 -58.52729957 349.03088727 -58.10546875 354.50390625 C-56.60094453 373.81973544 -55.00735386 393.11711606 -52.875 412.375 C-52.71660645 413.80972656 -52.55821289 415.24445313 -52.39501953 416.72265625 C-51.53461288 424.21261803 -50.42841947 431.59819004 -49 439 C-47.80124868 446.19250792 -49.81382276 449.62764551 -53 456 C-53.268125 457.381875 -53.53625 458.76375 -53.8125 460.1875 C-55.11856703 465.48050849 -56.99734178 469.45939489 -60 474 C-60.99 473.67 -61.98 473.34 -63 473 C-61.3125 468.5 -61.3125 468.5 -59 464 C-58.34 463.67 -57.68 463.34 -57 463 C-55.40359084 453.58118596 -53.99660018 443.3389997 -59 435 C-58.67 434.01 -58.34 433.02 -58 432 C-56.515 433.485 -56.515 433.485 -55 435 C-54.61290891 428.48446768 -55.20057001 422.18193019 -56.0234375 415.72265625 C-56.24 413.99080078 -56.4565625 412.25894531 -56.6796875 410.47460938 C-56.90914063 408.68861328 -57.13859375 406.90261719 -57.375 405.0625 C-57.82190209 401.53275298 -58.26722191 398.00280525 -58.7109375 394.47265625 C-58.9260498 392.76795166 -59.14116211 391.06324707 -59.36279297 389.30688477 C-60.04357187 383.63711812 -60.63896917 377.96217094 -61.21875 372.28125 C-61.4765625 369.8784375 -61.734375 367.475625 -62 365 C-61.68298579 371.3760761 -61.23977605 377.74207356 -60.80859375 384.11132812 C-60.2038391 393.43004757 -59.78760382 402.66081495 -60 412 C-60.33 412 -60.66 412 -61 412 C-61.85601732 404.96054929 -62.35405704 397.87906194 -62.9375 390.8125 C-63.11571289 388.67249512 -63.29392578 386.53249023 -63.47753906 384.32763672 C-65.26877389 361.99614517 -67 339.41872676 -67 317 C-68.98 317.66 -70.96 318.32 -73 319 C-72.34 317.68 -71.68 316.36 -71 315 C-73.475 313.515 -73.475 313.515 -76 312 C-74.515 310.515 -74.515 310.515 -73 309 C-73 308.34 -73 307.68 -73 307 C-74.98 306.34 -76.96 305.68 -79 305 C-82.02080315 301.68550766 -85.02063289 298.35178799 -88 295 C-93.627322 291.627322 -93.627322 291.627322 -99 292 C-98 287 -98 287 -97 285 C-99.31 284.67 -101.62 284.34 -104 284 C-104.33 282.68 -104.66 281.36 -105 280 C-106.98 278.515 -106.98 278.515 -109 277 C-110.5 272.875 -110.5 272.875 -111 269 C-109.68 268.67 -108.36 268.34 -107 268 C-106.01 268.66 -105.02 269.32 -104 270 C-104.33 269.67 -104.66 269.34 -105 269 C-105.495 267.515 -105.495 267.515 -106 266 C-104.68 266.33 -103.36 266.66 -102 267 C-103.32 265.35 -104.64 263.7 -106 262 C-108.36365936 256.0908516 -109 252.49996891 -109 246 C-108.01 246.66 -107.02 247.32 -106 248 C-106.9217772 244.31289121 -107.94144422 240.65019234 -109 237 C-111.31033666 227.75865335 -111.57920672 219.94801679 -108 211 C-107.67 211 -107.34 211 -107 211 C-106.566875 212.815 -106.13375 214.63 -105.6875 216.5 C-101.83471815 231.3403449 -92.83895312 240.5649925 -80.3125 249.25 C-76.36432182 252.01380647 -76.36432182 252.01380647 -73 253 C-74.67898788 246.81068516 -74.67898788 246.81068516 -79 242 C-78.34 242 -77.68 242 -77 242 C-77 241.34 -77 240.68 -77 240 C-76.01 239.67 -75.02 239.34 -74 239 C-75.68317605 233.80320446 -75.68317605 233.80320446 -79.8125 230.3125 C-80.864375 229.219375 -81.91625 228.12625 -83 227 C-81.515 226.01 -81.515 226.01 -80 225 C-76.5 228.25 -76.5 228.25 -74 231 C-79.18354281 224.77974863 -84.54088403 219.84433698 -91 215 C-89.9275 216.051875 -88.855 217.10375 -87.75 218.1875 C-85.89375 220.0746875 -85.89375 220.0746875 -84 222 C-84 222.66 -84 223.32 -84 224 C-88 222 -88 222 -91 220 C-90.01 221.65 -89.02 223.3 -88 225 C-92 225 -92 225 -96 222 C-94.37203489 227.02188441 -94.37203489 227.02188441 -91 230 C-91 230.66 -91 231.32 -91 232 C-91.99 231.67 -92.98 231.34 -94 231 C-94.495 230.01 -94.495 230.01 -95 229 C-95.99 229.99 -95.99 229.99 -97 231 C-103.69778597 220.63936232 -107.8107552 212.55360453 -106.25 199.9375 C-105 195 -105 195 -103 193 C-102.01 194.98 -101.02 196.96 -100 199 C-97.04396242 202.3723809 -94.04350636 205.70634243 -91 209 C-89.02 211.475 -89.02 211.475 -87 214 C-83.163534 218.53400528 -79.65619998 222.27504001 -75 226 C-73.52710378 221.76730504 -73.52710378 221.76730504 -76 217 C-79.50849346 210.8097394 -79.50849346 210.8097394 -85 208 C-86.32 207.67 -87.64 207.34 -89 207 C-97.38950003 200.09099998 -103.00284774 189.99288066 -107 180 C-107.81320238 172.03061668 -108.56356667 164.00264674 -108 156 C-104 160 -104 160 -100.75 163.9375 C-99.38875 165.4534375 -99.38875 165.4534375 -98 167 C-98 166.01 -98 165.02 -98 164 C-100.31541071 161.97927793 -102.64928907 159.97954605 -105 158 C-105.33 157.01 -105.66 156.02 -106 155 C-101.01749972 157.49125014 -97.87705967 161.05492174 -94 165 C-95.485 163.02 -95.485 163.02 -97 161 C-94 161 -94 161 -91 163 C-92.65 161.35 -94.3 159.7 -96 158 C-95.67 157.01 -95.34 156.02 -95 155 C-93.68 156.32 -92.36 157.64 -91 159 C-91 153.00738306 -94.61575521 149.80918997 -98 145 C-98.33 143.35 -98.66 141.7 -99 140 C-98.34 140 -97.68 140 -97 140 C-96.236875 141.36125 -95.47375 142.7225 -94.6875 144.125 C-90.61154019 150.61890207 -85.88558608 155.64259225 -80.53515625 161.09375 C-79.69855469 162.0528125 -78.86195313 163.011875 -78 164 C-78.33 164.66 -78.66 165.32 -79 166 C-81.475 164.02 -81.475 164.02 -84 162 C-82.700625 163.5159375 -82.700625 163.5159375 -81.375 165.0625 C-78 169 -78 169 -77 172 C-75.68 172.66 -74.36 173.32 -73 174 C-71.68 174.99 -70.36 175.98 -69 177 C-69.99 174.69 -70.98 172.38 -72 170 C-72.33 168.02 -72.66 166.04 -73 164 C-74.98 162.35 -76.96 160.7 -79 159 C-79.66 158.01 -80.32 157.02 -81 156 C-82.65 155.34 -84.3 154.68 -86 154 C-91.25503615 147.96229889 -94.75074922 141.29100176 -98 134 C-97.505 132.02 -97.505 132.02 -97 130 C-97.495 127.525 -97.495 127.525 -98 125 C-98.11948877 121.45979782 -98.17525174 117.91719692 -98.1875 114.375 C-98.20167969 112.50585938 -98.21585937 110.63671875 -98.23046875 108.7109375 C-98 104 -98 104 -96 101 C-95.95402603 104.99973579 -95.96190649 109.00018139 -96 113 C-95.67 114.98 -95.34 116.96 -95 119 C-94.34 119.33 -93.68 119.66 -93 120 C-92.46375 121.464375 -91.9275 122.92875 -91.375 124.4375 C-88.63040037 130.86564124 -84.96462302 136.03537698 -80 141 C-80.86625 139.618125 -81.7325 138.23625 -82.625 136.8125 C-87.60049831 128.24358624 -90.87743874 119.36768377 -94 110 C-94.33 110 -94.66 110 -95 110 C-95.47290736 101.2512138 -94.15974431 93.47284307 -92 85 C-91.01 84.505 -91.01 84.505 -90 84 C-90 86.31 -90 88.62 -90 91 C-89.34 92.32 -88.68 93.64 -88 95 C-86.63214233 92.01558328 -85.29827102 89.01533914 -84 86 C-83.67 87.32 -83.34 88.64 -83 90 C-82.401875 88.948125 -81.80375 87.89625 -81.1875 86.8125 C-80.465625 85.554375 -79.74375 84.29625 -79 83 C-77.02 82.505 -77.02 82.505 -75 82 C-74.34 80.68 -73.68 79.36 -73 78 C-72.34 78 -71.68 78 -71 78 C-69.68 76.02 -68.36 74.04 -67 72 C-62 66 -62 66 -60 65 C-60 64.34 -60 63.68 -60 63 C-60.33 62.67 -60.66 62.34 -61 62 C-59.70270909 58.73883784 -58.30941394 55.51571698 -56.875 52.3125 C-56.08867187 50.53488281 -55.30234375 48.75726563 -54.4921875 46.92578125 C-52 42 -52 42 -47 36 C-45.68 35.67 -44.36 35.34 -43 35 C-42.505 37.475 -42.505 37.475 -42 40 C-42 38.02 -42 36.04 -42 34 C-41.34 34.33 -40.68 34.66 -40 35 C-39.505 36.98 -39.505 36.98 -39 39 C-38.34 38.67 -37.68 38.34 -37 38 C-37 37.34 -37 36.68 -37 36 C-35.68 35.01 -34.36 34.02 -33 33 C-32.01 34.32 -31.02 35.64 -30 37 C-30.495 33.535 -30.495 33.535 -31 30 C-28 27 -28 27 -24 26 C-23.01 27.98 -22.02 29.96 -21 32 C-20.34 30.68 -19.68 29.36 -19 28 C-18.505 28.99 -18.505 28.99 -18 30 C-17.34 30 -16.68 30 -16 30 C-16.309375 27.4940625 -16.309375 27.4940625 -16.625 24.9375 C-16.74875 23.308125 -16.8725 21.67875 -17 20 C-15.02 20.495 -15.02 20.495 -13 21 C-13 20.01 -13 19.02 -13 18 C-12.34 18 -11.68 18 -11 18 C-10.01 19.98 -10.01 19.98 -9 22 C-9.99 18.535 -9.99 18.535 -11 15 C-9 15 -7 15 -5 15 C-4.505 17.475 -4.505 17.475 -4 20 C-3.34 18.68 -2.68 17.36 -2 16 C0.67925812 20.01888718 0 23.23740874 0 28 C0.268125 26.370625 0.53625 24.74125 0.8125 23.0625 C1.204375 21.391875 1.59625 19.72125 2 18 C5 19 5 19 7 20 C6.01530973 11.89119671 6.01530973 11.89119671 4 4 C3.34 4 2.68 4 2 4 C1.01 2.02 1.01 2.02 0 0 Z M7 9 C8 11 8 11 8 11 Z M8 12 C9 15 9 15 9 15 Z M10 17 C11 21 11 21 11 21 Z M6 21 C5.62875 22.464375 5.2575 23.92875 4.875 25.4375 C2.82556662 31.51748568 0.13254778 35.14244384 -4 40 C-8.05803109 44.84376245 -8.05803109 44.84376245 -11 50 C-12.99361471 52.67144371 -14.99302607 55.33857805 -17 58 C-17.33 58.66 -17.66 59.32 -18 60 C-9.8177583 55.90887915 -2.63419588 50.26562944 4 44 C4 43.34 4 42.68 4 42 C5.32 41.34 6.64 40.68 8 40 C8 39.01 8 38.02 8 37 C7.01 37.33 6.02 37.66 5 38 C4.67 38 4.34 38 4 38 C4.78375 36.865625 5.5675 35.73125 6.375 34.5625 C9.11842011 29.79417456 9.9089177 26.46493775 10 21 C9.34 22.32 8.68 23.64 8 25 C7.67 25.66 7.34 26.32 7 27 C7 25.02 7 23.04 7 21 C6.67 21 6.34 21 6 21 Z M13 23 C14 26 14 26 14 26 Z M-3 33 C-2 35 -2 35 -2 35 Z M-4 35 C-3 37 -3 37 -3 37 Z M-45 37 C-44 40 -44 40 -44 40 Z M-5 37 C-4 39 -4 39 -4 39 Z M-12 38 C-12.66 39.65 -13.32 41.3 -14 43 C-12.68 42.34 -11.36 41.68 -10 41 C-9.67 40.01 -9.34 39.02 -9 38 C-9.99 38 -10.98 38 -12 38 Z M-29 40 C-28 44 -28 44 -28 44 Z M-33 44 C-33.34273604 46.99894033 -33.67557017 49.99902409 -34 53 C-34.33 53.66 -34.66 54.32 -35 55 C-34.67 56.98 -34.34 58.96 -34 61 C-33.01 60.67 -32.02 60.34 -31 60 C-29.59128858 55.03992564 -29.59128858 55.03992564 -29 50 C-29.66 49.67 -30.32 49.34 -31 49 C-31.33 47.35 -31.66 45.7 -32 44 C-32.33 44 -32.66 44 -33 44 Z M-27 44 C-26 47 -26 47 -26 47 Z M-38 45 C-37 47 -37 47 -37 47 Z M-24 46 C-23 48 -23 48 -23 48 Z M-47 48 C-46 50 -46 50 -46 50 Z M-41 50 C-40 53 -40 53 -40 53 Z M-47 51 C-47.1288859 54.08127232 -47.17599274 57.16605475 -47.1875 60.25 C-47.20167969 61.96703125 -47.21585937 63.6840625 -47.23046875 65.453125 C-47.3016075 70.06572209 -47.3016075 70.06572209 -45 74 C-43.13164926 68.39494779 -42.75801984 64.91970816 -42.8125 59.125 C-42.81894531 57.60132813 -42.82539063 56.07765625 -42.83203125 54.5078125 C-42.88746094 53.35023438 -42.94289063 52.19265625 -43 51 C-43.33 51 -43.66 51 -44 51 C-44.165 53.041875 -44.33 55.08375 -44.5 57.1875 C-44.665 58.775625 -44.83 60.36375 -45 62 C-45.38047534 58.3379249 -45.70344852 54.66982462 -46 51 C-46.33 51 -46.66 51 -47 51 Z M-52 54 C-52.08331793 58.33253227 -52.08331793 62.66746773 -52 67 C-51.67 67 -51.34 67 -51 67 C-50.91668207 62.66746773 -50.91668207 58.33253227 -51 54 C-51.33 54 -51.66 54 -52 54 Z M-24 58 C-26.40027659 60.26441188 -28.72521697 62.60955003 -31 65 C-32.65 66.65 -34.3 68.3 -36 70 C-48.76129377 84.43490607 -55.89185011 101.99789833 -58.3125 121 C-58.869375 122.98 -59.42625 124.96 -60 127 C-62.72425689 123.04307315 -64.36099288 118.82488351 -66.16015625 114.37890625 C-67.43631339 110.01044052 -67.43631339 110.01044052 -70 109 C-68.69284574 115.5357713 -65.83056218 120.98505536 -63 127 C-59.42486592 137.72540224 -62.43241117 152.43423752 -62.9375 163.625 C-63.06801758 166.656875 -63.06801758 166.656875 -63.20117188 169.75 C-63.28818359 171.70164062 -63.37519531 173.65328125 -63.46484375 175.6640625 C-63.543396 177.43217285 -63.62194824 179.2002832 -63.70288086 181.02197266 C-63.88579157 184.08651604 -64.13976499 187.14895551 -64.51048279 190.19648743 C-65.01147954 195.11264589 -65.12706226 199.89336452 -65.12939453 204.83422852 C-65.13254669 206.75554092 -65.13569885 208.67685333 -65.13894653 210.65638733 C-65.13591019 213.73653419 -65.13591019 213.73653419 -65.1328125 216.87890625 C-65.13376923 218.99699203 -65.13472595 221.11507782 -65.13571167 223.29734802 C-65.13639117 227.76309234 -65.13455295 232.22883766 -65.13037109 236.69458008 C-65.12499578 243.5678933 -65.13033616 250.44114187 -65.13671875 257.31445312 C-65.1360584 261.64843765 -65.13477812 265.98242213 -65.1328125 270.31640625 C-65.13483673 272.38805557 -65.13686096 274.4597049 -65.13894653 276.59413147 C-65.13579437 278.48707443 -65.13264221 280.3800174 -65.12939453 282.33032227 C-65.12859894 284.00860611 -65.12780334 285.68688995 -65.12698364 287.41603088 C-65.08507904 288.59874069 -65.04317444 289.7814505 -65 291 C-64.67 291 -64.34 291 -64 291 C-63.77062589 288.17105266 -63.62328488 285.33555222 -63.5 282.5 C-63.4175 280.61410156 -63.335 278.72820312 -63.25 276.78515625 C-63.06375606 271.73037944 -62.89669851 266.67703484 -62.75 261.62109375 C-62.70810547 260.18636719 -62.66621094 258.75164062 -62.62304688 257.2734375 C-62.54164737 254.40507414 -62.46475268 251.53657906 -62.39257812 248.66796875 C-62.10889847 238.43559389 -62.10889847 238.43559389 -61 234 C-61.00741721 230.81837928 -61.08152576 227.63676264 -61.19140625 224.45703125 C-61.24876953 222.57951172 -61.30613281 220.70199219 -61.36523438 218.76757812 C-61.49713689 214.78568933 -61.63257449 210.80391612 -61.77148438 206.82226562 C-61.82755859 204.94861328 -61.88363281 203.07496094 -61.94140625 201.14453125 C-62.00013916 199.41565674 -62.05887207 197.68678223 -62.11938477 195.90551758 C-62.07998779 194.61669678 -62.04059082 193.32787598 -62 192 C-61.34 191.67 -60.68 191.34 -60 191 C-60 187.83845479 -60.0360327 184.67698436 -60.0703125 181.515625 C-60.35913565 146.04249657 -59.32655805 108.48983707 -39 78 C-39 77.34 -39 76.68 -39 76 C-38.01 75.67 -37.02 75.34 -36 75 C-33.99253822 72.33894601 -31.99397536 69.67117453 -30 67 C-28.515 65.535625 -27.03 64.07125 -25.5 62.5625 C-23.7675 60.7990625 -23.7675 60.7990625 -22 59 C-22.66 58.67 -23.32 58.34 -24 58 Z M-62 71 C-63.4126176 80.88832322 -61.72972881 89.44594916 -59 99 C-57.46034306 92.84137224 -59.04959572 87.23042808 -60 81 C-60.185625 79.06125 -60.37125 77.1225 -60.5625 75.125 C-60.706875 73.76375 -60.85125 72.4025 -61 71 C-61.33 71 -61.66 71 -62 71 Z M-64 72 C-63 74 -63 74 -63 74 Z M-59 72 C-59 78.54731712 -58.48654291 83.70405356 -57 90 C-56.67 90 -56.34 90 -56 90 C-56.1876954 80.69319456 -56.1876954 80.69319456 -59 72 Z M-65 74 C-65.38701443 82.9013319 -64.60782353 90.47442308 -62 99 C-61.34 99.66 -60.68 100.32 -60 101 C-60.62969096 97.32680273 -61.30902571 93.66216376 -62 90 C-62.3705927 87.10622292 -62.72447085 84.21026138 -63.0625 81.3125 C-63.371875 78.899375 -63.68125 76.48625 -64 74 C-64.33 74 -64.66 74 -65 74 Z M-55 77 C-55.25001948 81.9582748 -55.25001948 81.9582748 -55 87 C-54.01 87.495 -54.01 87.495 -53 88 C-53.21124837 84.32427835 -53.54838401 80.65398393 -54 77 C-54.33 77 -54.66 77 -55 77 Z M-70 80 C-69 83 -69 83 -69 83 Z M-73 81 C-74.57455227 87.29820909 -74.11134683 93.54188398 -74 100 C-73.67 100 -73.34 100 -73 100 C-72.732519 96.83778014 -72.53717515 93.66936583 -72.375 90.5 C-72.27960938 88.7365625 -72.18421875 86.973125 -72.0859375 85.15625 C-72.05757813 83.7846875 -72.02921875 82.413125 -72 81 C-72.33 81 -72.66 81 -73 81 Z M-71 83 C-73.20997013 91.99773553 -70.2067169 98.6188081 -67 107 C-66.01 108.32 -65.02 109.64 -64 111 C-64.84556692 106.11325092 -64.84556692 106.11325092 -66.4375 102.0625 C-68.37648115 95.78020109 -69.11592208 89.50428756 -70 83 C-70.33 83 -70.66 83 -71 83 Z M-78 87 C-77 89 -77 89 -77 89 Z M-68 88 C-68 94.95015778 -66.91934024 98.80746009 -64 105 C-62.55249283 100.65747849 -64.37286843 98.19299289 -66 94 C-66.33 92.02 -66.66 90.04 -67 88 C-67.33 88 -67.66 88 -68 88 Z M-27 89 C-26 91 -26 91 -26 91 Z M-79 90 C-78 92 -78 92 -78 92 Z M-20 90 C-19 92 -19 92 -19 92 Z M-35 91 C-35.33 91.99 -35.66 92.98 -36 94 C-35.34 94 -34.68 94 -34 94 C-33.67 93.01 -33.34 92.02 -33 91 C-33.66 91 -34.32 91 -35 91 Z M-32 93 C-31 95 -31 95 -31 95 Z M-20 93 C-19 97 -19 97 -19 97 Z M-39 95 C-41.79030455 98.91475563 -44.45957347 102.91865902 -47 107 C-46.67 107.66 -46.34 108.32 -46 109 C-40.02865675 102.62991771 -40.02865675 102.62991771 -37 95 C-37.66 95 -38.32 95 -39 95 Z M-29 94 C-29.99 95.32 -30.98 96.64 -32 98 C-32.66 97.34 -33.32 96.68 -34 96 C-34 96.66 -34 97.32 -34 98 C-34.66 98 -35.32 98 -36 98 C-48.23370178 112.46234721 -48.23370178 112.46234721 -53 130 C-42.88104214 119.88104214 -34.71804913 108.63256689 -28 96 C-28.33 95.34 -28.66 94.68 -29 94 Z M-24 96 C-24.763125 97.588125 -25.52625 99.17625 -26.3125 100.8125 C-27.199375 102.524375 -28.08625 104.23625 -29 106 C-30.32 106.33 -31.64 106.66 -33 107 C-34.98 109.97 -34.98 109.97 -37 113 C-37.99 113.99 -38.98 114.98 -40 116 C-41.72499638 118.20027902 -43.4080731 120.43367838 -45.0625 122.6875 C-46.37927734 124.45673828 -46.37927734 124.45673828 -47.72265625 126.26171875 C-50.12310339 130.20207537 -51.28551571 133.45193794 -52 138 C-51.34 138.33 -50.68 138.66 -50 139 C-51.61214494 142.69096341 -53.28108401 146.35753517 -55 150 C-55 150.66 -55 151.32 -55 152 C-53.35 151.34 -51.7 150.68 -50 150 C-49.67 150.66 -49.34 151.32 -49 152 C-49.99 153.32 -50.98 154.64 -52 156 C-53.42888821 160.75314051 -53.42888821 160.75314051 -54 165 C-53.01 164.01 -52.02 163.02 -51 162 C-50.34 162.33 -49.68 162.66 -49 163 C-47.35 162.01 -45.7 161.02 -44 160 C-44.495 158.515 -44.495 158.515 -45 157 C-40.53396471 153.31747967 -35.81938909 150.21292606 -31 147 C-31 147.66 -31 148.32 -31 149 C-23.18144352 145.09072176 -17.84539412 140.26809118 -13 133 C-10.9119079 127.77976975 -10.68294574 124.54844948 -11 119 C-11.66 118.01 -12.32 117.02 -13 116 C-13.75684967 120.3184952 -14.4128617 124.65517655 -15 129 C-15.33 130.32 -15.66 131.64 -16 133 C-16 130 -16 130 -14 125 C-14 122.69 -14 120.38 -14 118 C-14.33 118 -14.66 118 -15 118 C-15.66 119.98 -16.32 121.96 -17 124 C-22.37616911 130.72021139 -27.76310373 135.42372736 -35 140 C-35.33 140 -35.66 140 -36 140 C-33 137 -30 134 -27 131 C-28.65 131.66 -30.3 132.32 -32 133 C-34.475 133.495 -34.475 133.495 -37 134 C-37.33 133.34 -37.66 132.68 -38 132 C-39.65 133.32 -41.3 134.64 -43 136 C-41.63875 134.741875 -40.2775 133.48375 -38.875 132.1875 C-31.03846443 124.44653193 -25.47870918 115.43612753 -22 105 C-25.40557638 108.13543264 -25.40557638 108.13543264 -28.125 113.5625 C-31.95867522 119.93134754 -35.77560624 124.77560624 -41 130 C-38.30832872 124.85607833 -35.12516411 120.0128329 -32 115.125 C-28.51854832 109.57113321 -25.24215402 104.19261587 -23 98 C-23.33 97.34 -23.66 96.68 -24 96 Z M-85 97 C-84 100 -84 100 -84 100 Z M-90 98 C-89 100 -89 100 -89 100 Z M-76 98 C-75 102 -75 102 -75 102 Z M-21 98 C-20 102 -20 102 -20 102 Z M-79 99 C-79 101.64 -79 104.28 -79 107 C-78.67 107 -78.34 107 -78 107 C-78 104.36 -78 101.72 -78 99 C-78.33 99 -78.66 99 -79 99 Z M-73 100 C-72.7430151 103.97297326 -72.7430151 103.97297326 -72 108 C-71.34 108.33 -70.68 108.66 -70 109 C-70.76463246 104.51723438 -70.76463246 104.51723438 -72 100 C-72.33 100 -72.66 100 -73 100 Z M-85 101 C-85 102.98 -85 104.96 -85 107 C-84.67 107 -84.34 107 -84 107 C-84 105.02 -84 103.04 -84 101 C-84.33 101 -84.66 101 -85 101 Z M-60 101 C-59.67 102.98 -59.34 104.96 -59 107 C-58.67 105.68 -58.34 104.36 -58 103 C-58.66 102.34 -59.32 101.68 -60 101 Z M-75 102 C-74 106 -74 106 -74 106 Z M-29 102 C-28 104 -28 104 -28 104 Z M-22 102 C-21 104 -21 104 -21 104 Z M-74 106 C-72.9634099 112.21954058 -71.07771798 116.53705058 -68 122 C-67.67 121.01 -67.34 120.02 -67 119 C-68.88496638 114.61540429 -70.88258141 110.27718556 -73 106 C-73.33 106 -73.66 106 -74 106 Z M-78 107 C-77 111 -77 111 -77 111 Z M-58 107 C-57 110 -57 110 -57 110 Z M-84 109 C-83.73601099 115.59972527 -81.74332797 121.04305927 -79 127 C-77.68 128.32 -76.36 129.64 -75 131 C-77.51618055 123.45145835 -80.43982326 116.12035348 -84 109 Z M-77 111 C-76.67 112.65 -76.34 114.3 -76 116 C-75.67 115.01 -75.34 114.02 -75 113 C-75.66 112.34 -76.32 111.68 -77 111 Z M-63 112 C-62 115 -62 115 -62 115 Z M-89 114 C-88 117 -88 117 -88 117 Z M-75 116 C-74.67 117.32 -74.34 118.64 -74 120 C-73.67 119.34 -73.34 118.68 -73 118 C-73.66 117.34 -74.32 116.68 -75 116 Z M-88 117 C-87 120 -87 120 -87 120 Z M-21 118 C-22.76686572 121.28132205 -24.43303432 124.61865301 -26 128 C-25.67 128.66 -25.34 129.32 -25 130 C-20.41471291 125.13619888 -20.41471291 125.13619888 -20 118 C-20.33 118 -20.66 118 -21 118 Z M-87 120 C-86 123 -86 123 -86 123 Z M-73 120 C-71.52174919 125.9254644 -71.52174919 125.9254644 -68 129 C-69.47825081 123.0745356 -69.47825081 123.0745356 -73 120 Z M-24 120 C-23 122 -23 122 -23 122 Z M-76 121 C-75 123 -75 123 -75 123 Z M-25 122 C-29.79176294 126.29171487 -29.79176294 126.29171487 -34 131 C-33.01 131 -32.02 131 -31 131 C-27.20817438 127.70825367 -27.20817438 127.70825367 -24 124 C-24.33 123.34 -24.66 122.68 -25 122 Z M-86 123 C-84.90280771 128.48596147 -82.91739811 132.25922808 -80 137 C-79.67 136.34 -79.34 135.68 -79 135 C-80.90024248 130.95165731 -82.89982694 126.94832536 -85 123 C-85.33 123 -85.66 123 -86 123 Z M-75 123 C-74.67 124.32 -74.34 125.64 -74 127 C-73.34 127.33 -72.68 127.66 -72 128 C-72.66 126.35 -73.32 124.7 -74 123 C-74.33 123 -74.66 123 -75 123 Z M-79 137 C-78.67 137.99 -78.34 138.98 -78 140 C-78 139.01 -78 138.02 -78 137 C-78.33 137 -78.66 137 -79 137 Z M-86 139 C-86 139.99 -86 140.98 -86 142 C-85.34 141.34 -84.68 140.68 -84 140 C-84.66 139.67 -85.32 139.34 -86 139 Z M-93 140 C-92 142 -92 142 -92 142 Z M-77 140 C-76.67 140.99 -76.34 141.98 -76 143 C-76 142.01 -76 141.02 -76 140 C-76.33 140 -76.66 140 -77 140 Z M-84 141 C-84.33 141.99 -84.66 142.98 -85 144 C-79.50388308 151.64174421 -79.50388308 151.64174421 -72 157 C-75.53941994 150.90014861 -78.99836843 146.00163157 -84 141 Z M-78 144 C-76.52360997 149.06008639 -76.52360997 149.06008639 -73 151 C-74.47639003 145.93991361 -74.47639003 145.93991361 -78 144 Z M-59 145 C-58 147 -58 147 -58 147 Z M-68 149 C-67.67 149.99 -67.34 150.98 -67 152 C-67 151.01 -67 150.02 -67 149 C-67.33 149 -67.66 149 -68 149 Z M-73 151 C-72.34 152.65 -71.68 154.3 -71 156 C-70.34 156.33 -69.68 156.66 -69 157 C-69.66 155.35 -70.32 153.7 -71 152 C-71.66 151.67 -72.32 151.34 -73 151 Z M-69 157 C-68 159 -68 159 -68 159 Z M-38 158 C-38.99 159.485 -38.99 159.485 -40 161 C-38.35 160.34 -36.7 159.68 -35 159 C-35.99 158.67 -36.98 158.34 -38 158 Z M-44 162 C-44.33 162.66 -44.66 163.32 -45 164 C-44.01 163.67 -43.02 163.34 -42 163 C-42.66 162.67 -43.32 162.34 -44 162 Z M-37 163 C-38.546875 163.70125 -40.09375 164.4025 -41.6875 165.125 C-43.8221875 166.053125 -43.8221875 166.053125 -46 167 C-45.67 166.01 -45.34 165.02 -45 164 C-45.66 164 -46.32 164 -47 164 C-49.02979952 166.97991844 -51.02794884 169.98155434 -53 173 C-53.99 173.99 -54.98 174.98 -56 176 C-55.67 176.66 -55.34 177.32 -55 178 C-55.66 179.98 -56.32 181.96 -57 184 C-56.01 183.67 -55.02 183.34 -54 183 C-54.33 183.99 -54.66 184.98 -55 186 C-53.68 185.34 -52.36 184.68 -51 184 C-50.34 183.67 -49.68 183.34 -49 183 C-48.67 183.66 -48.34 184.32 -48 185 C-45.60765642 182.38614313 -43.279997 179.71241023 -41 177 C-40.01 176.01 -39.02 175.02 -38 174 C-38.99 173.67 -39.98 173.34 -41 173 C-42.98 173.99 -42.98 173.99 -45 175 C-43 171 -43 171 -38 167 C-38 166.34 -38 165.68 -38 165 C-37.01 164.67 -36.02 164.34 -35 164 C-35.66 163.67 -36.32 163.34 -37 163 Z M-60 164 C-59 166 -59 166 -59 166 Z M-87 167 C-82.35355339 171.88214887 -82.35355339 171.88214887 -78 175 C-77.34 174.67 -76.68 174.34 -76 174 C-79.6803107 170.33151398 -79.6803107 170.33151398 -84 167 C-84.99 167 -85.98 167 -87 167 Z M-60 167 C-59 171 -59 171 -59 171 Z M-105 168 C-104.23543548 172.01121121 -104.23543548 172.01121121 -102 175 C-101.34 174.67 -100.68 174.34 -100 174 C-101.32 172.02 -102.64 170.04 -104 168 C-104.33 168 -104.66 168 -105 168 Z M-53 168 C-54.65 169.98 -56.3 171.96 -58 174 C-57.67 174.66 -57.34 175.32 -57 176 C-55.35 174.02 -53.7 172.04 -52 170 C-52.33 169.34 -52.66 168.68 -53 168 Z M-98 171 C-97.67 172.98 -97.34 174.96 -97 177 C-96.01 177.33 -95.02 177.66 -94 178 C-93.34 179.32 -92.68 180.64 -92 182 C-89.70068353 184.03901649 -87.3641646 186.03654127 -85 188 C-83.35 189.65 -81.7 191.3 -80 193 C-79.34 193.33 -78.68 193.66 -78 194 C-78 193.01 -78 192.02 -78 191 C-76.68 191.99 -75.36 192.98 -74 194 C-74 192.68 -74 191.36 -74 190 C-73.34 190.33 -72.68 190.66 -72 191 C-73.83566248 185.7099926 -73.83566248 185.7099926 -78 181 C-79.65 180.34 -81.3 179.68 -83 179 C-81.67755471 181.33952146 -80.34551421 183.67366947 -79 186 C-81.56640625 184.1640625 -81.56640625 184.1640625 -85.5625 180.625 C-86.86316406 179.48289062 -88.16382813 178.34078125 -89.50390625 177.1640625 C-91.71713729 175.16102659 -93.88924842 173.11075158 -96 171 C-96.66 171 -97.32 171 -98 171 Z M-60 172 C-59 174 -59 174 -59 174 Z M-88 174 C-87.01 174.99 -86.02 175.98 -85 177 C-85.33 176.01 -85.66 175.02 -86 174 C-86.66 174 -87.32 174 -88 174 Z M-102 177 C-99.22931357 182.54137286 -95.18323342 186.44134819 -91 191 C-83.234375 199.53125 -83.234375 199.53125 -81 204 C-87.88665059 197.23990348 -94.31459069 189.99330783 -100.3125 182.4375 C-102.1378125 180.2409375 -102.1378125 180.2409375 -104 178 C-104.33 178.66 -104.66 179.32 -105 180 C-102.08084521 185.32338083 -102.08084521 185.32338083 -97 190 C-96.34 191.65 -95.68 193.3 -95 195 C-91.4472136 197.1490712 -91.4472136 197.1490712 -89 197 C-88.34 198.32 -87.68 199.64 -87 201 C-84.00473115 204.33758529 -81.0044836 207.67070737 -78 211 C-76.68 212.98 -75.36 214.96 -74 217 C-73.34 217.33 -72.68 217.66 -72 218 C-72.33 216.35 -72.66 214.7 -73 213 C-72.34 212.34 -71.68 211.68 -71 211 C-72.2231723 202.43779389 -75.31207497 199.3614951 -81 193 C-82.65 191.68 -84.3 190.36 -86 189 C-86 189.66 -86 190.32 -86 191 C-90.39061528 188.80469236 -92.45329143 186.52805802 -95.6875 182.875 C-98.3171875 179.966875 -98.3171875 179.966875 -101 177 C-101.33 177 -101.66 177 -102 177 Z M-73 180 C-69.84998364 187.2167227 -69.84998364 187.2167227 -66 194 C-64.4924553 189.77879761 -64.4924553 189.77879761 -67.25 185.3125 C-69.47466975 180.8251851 -69.47466975 180.8251851 -73 180 Z M-18 180 C-18.99 181.010625 -19.98 182.02125 -21 183.0625 C-26.56020546 188.53582725 -31.9624881 193.00671295 -39 196.4375 C-44.48465111 199.2483837 -48.50414245 202.82527513 -53 207 C-48.79266218 201.24997165 -43.58573366 197.31624873 -38 193 C-38 192.34 -38 191.68 -38 191 C-44.54444876 193.18148292 -47.92923932 195.35180271 -53 200 C-56.71188237 206.16696309 -56.71188237 206.16696309 -59 212 C-58.34 212 -57.68 212 -57 212 C-56.67 212.66 -56.34 213.32 -56 214 C-53.03 211.525 -53.03 211.525 -50 209 C-39.23090186 202.24067245 -39.23090186 202.24067245 -33.984375 201.21484375 C-28.87785098 199.65785456 -27.2843276 197.49226992 -24.125 193.25 C-23.19945312 192.03828125 -22.27390625 190.8265625 -21.3203125 189.578125 C-18.65124667 185.78987843 -18.65124667 185.78987843 -17 180 C-17.33 180 -17.66 180 -18 180 Z M-38 183 C-38.33 183.66 -38.66 184.32 -39 185 C-38.01 184.67 -37.02 184.34 -36 184 C-36.66 183.67 -37.32 183.34 -38 183 Z M-61 195 C-60 197 -60 197 -60 197 Z M-105 199 C-105 200.98 -105 202.96 -105 205 C-104.34 204.34 -103.68 203.68 -103 203 C-103.66 201.68 -104.32 200.36 -105 199 Z M-61 200 C-60 202 -60 202 -60 202 Z M-29 200 C-30.32 201.32 -31.64 202.64 -33 204 C-32.01 204 -31.02 204 -30 204 C-29.34 202.68 -28.68 201.36 -28 200 C-28.33 200 -28.66 200 -29 200 Z M-20 203 C-21.65 204.65 -23.3 206.3 -25 208 C-30.69478686 211.06642369 -36.33624038 213.74530154 -42.375 216.0625 C-47.55858237 217.9679333 -47.55858237 217.9679333 -53 223 C-53 223.99 -53 224.98 -53 226 C-49.86527247 227.40002112 -49.86527247 227.40002112 -46.3125 225.5625 C-44.559375 224.716875 -42.80625 223.87125 -41 223 C-39.65421875 222.35804688 -38.3084375 221.71609375 -36.921875 221.0546875 C-27.07959479 216.53433403 -27.07959479 216.53433403 -21 208 C-20.01 206.35 -19.02 204.7 -18 203 C-18.66 203 -19.32 203 -20 203 Z M-104 205 C-103 208 -103 208 -103 208 Z M-61 205 C-60 207 -60 207 -60 207 Z M-103 208 C-102 211 -102 211 -102 211 Z M-11 208 C-11.391875 209.11375 -11.78375 210.2275 -12.1875 211.375 C-15.37542018 219.50969287 -22.53901965 223.90171502 -30 228 C-32.5113272 229.0236388 -35.03319111 230.02163544 -37.5625 231 C-42.96521372 233.09866369 -47.60452807 235.11562946 -52 239 C-54 242.76429774 -54 242.76429774 -55 246 C-52.525 245.505 -52.525 245.505 -50 245 C-50.33 245.66 -50.66 246.32 -51 247 C-45.97811559 245.37203489 -45.97811559 245.37203489 -43 242 C-44.32 242 -45.64 242 -47 242 C-42.40108147 238.57527344 -38.02923824 236.64786093 -32.625 234.6875 C-23.64017915 231.04271418 -17.793995 225.793995 -11 219 C-8.89992749 215.01464019 -8.89992749 215.01464019 -8 211 C-8.99 210.01 -9.98 209.02 -11 208 Z M-61 210 C-60 212 -60 212 -60 212 Z M-35 210 C-35.33 210.66 -35.66 211.32 -36 212 C-34.68 211.34 -33.36 210.68 -32 210 C-32.99 210 -33.98 210 -35 210 Z M-14 210 C-13 212 -13 212 -13 212 Z M-102 211 C-101 214 -101 214 -101 214 Z M-98 211 C-97 213 -97 213 -97 213 Z M-95 215 C-94 217 -94 217 -94 217 Z M-25 216 C-25.99 216.99 -26.98 217.98 -28 219 C-26.35 218.34 -24.7 217.68 -23 217 C-23.66 216.67 -24.32 216.34 -25 216 Z M-18 216 C-18.33 216.66 -18.66 217.32 -19 218 C-18.34 218 -17.68 218 -17 218 C-17.33 217.34 -17.66 216.68 -18 216 Z M-9 216 C-8 219 -8 219 -8 219 Z M-7 216 C-6 218 -6 218 -6 218 Z M-30 219 C-33.03727016 220.15649902 -36.03205221 221.42569418 -39 222.75 C-40.629375 223.46671875 -42.25875 224.1834375 -43.9375 224.921875 C-48.11312686 226.64087131 -48.11312686 226.64087131 -50 230 C-44.85839992 228.28613331 -40.33957438 226.33552652 -35.5 223.9375 C-34.0459375 223.22464844 -32.591875 222.51179687 -31.09375 221.77734375 C-30.0728125 221.19082031 -29.051875 220.60429687 -28 220 C-28.66 219.67 -29.32 219.34 -30 219 Z M-22 219 C-22.33 219.66 -22.66 220.32 -23 221 C-22.01 220.67 -21.02 220.34 -20 220 C-20.66 219.67 -21.32 219.34 -22 219 Z M-10 219 C-10 222 -10 222 -10 222 Z M-7 219 C-6 221 -6 221 -6 221 Z M-100 222 C-99 224 -99 224 -99 224 Z M-31 225 C-30.01 225.33 -29.02 225.66 -28 226 C-26.68 224.68 -25.36 223.36 -24 222 C-26.68599434 221.82850141 -26.68599434 221.82850141 -31 225 Z M-14 224 C-14.99 225.485 -14.99 225.485 -16 227 C-15.01 226.67 -14.02 226.34 -13 226 C-13.33 225.34 -13.66 224.68 -14 224 Z M-18 227 C-18.99 228.485 -18.99 228.485 -20 230 C-18.68 229.34 -17.36 228.68 -16 228 C-16.66 227.67 -17.32 227.34 -18 227 Z M-14 227 C-14.66 228.32 -15.32 229.64 -16 231 C-14.68 229.68 -13.36 228.36 -12 227 C-12.66 227 -13.32 227 -14 227 Z M-34 236 C-35.65 236.66 -37.3 237.32 -39 238 C-35.49406208 239.51569878 -35.49406208 239.51569878 -30.0625 236.8125 C-23.93235649 234.3908445 -23.93235649 234.3908445 -20 230 C-24.66618011 230 -29.93684991 233.947904 -34 236 Z M-102 233 C-101 235 -101 235 -101 235 Z M-106 234 C-105 236 -105 236 -105 236 Z M-99 237 C-98.67 237.99 -98.34 238.98 -98 240 C-98 239.01 -98 238.02 -98 237 C-98.33 237 -98.66 237 -99 237 Z M-62 239 C-61 243 -61 243 -61 243 Z M-32 241 C-39.81667639 242.35942198 -43.29321722 243.29321722 -49 249 C-49.33 250.32 -49.66 251.64 -50 253 C-42.60755631 251.52151126 -37.39985592 247.98481595 -31 244 C-31.33 243.01 -31.66 242.02 -32 241 Z M-62 244 C-61 248 -61 248 -61 248 Z M-33 246 C-43.17274901 251.03699223 -49.23754408 254.65397506 -54 265 C-54.33 265.99 -54.66 266.98 -55 268 C-54.34 268.66 -53.68 269.32 -53 270 C-50.9890625 269.1028125 -50.9890625 269.1028125 -48.9375 268.1875 C-44.06197681 266.02745808 -40.2650943 265.41786463 -35 265 C-35 264.67 -35 264.34 -35 264 C-37.66601054 263.66145898 -40.3327068 263.32828224 -43 263 C-43.33 262.67 -43.66 262.34 -44 262 C-43.34 261.34 -42.68 260.68 -42 260 C-42.33 259.34 -42.66 258.68 -43 258 C-41.35 257.67 -39.7 257.34 -38 257 C-33.03981788 253.6618404 -33.03981788 253.6618404 -29 250 C-29.99 249.67 -30.98 249.34 -32 249 C-33.65 249.99 -35.3 250.98 -37 252 C-37.33 251.67 -37.66 251.34 -38 251 C-36.63875 250.34 -35.2775 249.68 -33.875 249 C-32.59625 248.34 -31.3175 247.68 -30 247 C-30.99 246.67 -31.98 246.34 -33 246 Z M-28 247 C-28.33 247.66 -28.66 248.32 -29 249 C-28.01 248.67 -27.02 248.34 -26 248 C-26.66 247.67 -27.32 247.34 -28 247 Z M-21 248 C-21.99 249.485 -21.99 249.485 -23 251 C-21.68 250.34 -20.36 249.68 -19 249 C-19.66 248.67 -20.32 248.34 -21 248 Z M-62 249 C-61 251 -61 251 -61 251 Z M-90 250 C-89.67 250.66 -89.34 251.32 -89 252 C-90.32 252.33 -91.64 252.66 -93 253 C-90.02137794 253.75647544 -87.01492547 254.40445917 -84 255 C-82.35 255.33 -80.7 255.66 -79 256 C-79.33 254.68 -79.66 253.36 -80 252 C-84.87620311 249.69050777 -84.87620311 249.69050777 -90 250 Z M-96 255 C-96 256.32 -96 257.64 -96 259 C-90.06014635 261.02824271 -85.29442751 262 -79 262 C-79.75150023 258.72226496 -79.75150023 258.72226496 -83 257 C-85.65954463 256.61393707 -88.3275696 256.28343959 -91 256 C-92.65 255.67 -94.3 255.34 -96 255 Z M-93 261 C-90.89459074 263.31622777 -90.89459074 263.31622777 -87 265 C-91.58726974 265.21502827 -95.53281942 265.11679515 -100 264 C-99.01 264.99 -98.02 265.98 -97 267 C-96.01 267.99 -95.02 268.98 -94 270 C-92.68 270 -91.36 270 -90 270 C-89.67 270.99 -89.34 271.98 -89 273 C-84.372678 273.372678 -84.372678 273.372678 -82 272 C-80.68 272.185625 -79.36 272.37125 -78 272.5625 C-76.68 272.706875 -75.36 272.85125 -74 273 C-73.34 272.34 -72.68 271.68 -72 271 C-72.33 270.01 -72.66 269.02 -73 268 C-79.86210923 264.49892386 -85.34231143 262.09395551 -93 261 Z M-40 261 C-41.485 261.99 -41.485 261.99 -43 263 C-39.535 262.505 -39.535 262.505 -36 262 C-37.32 261.67 -38.64 261.34 -40 261 Z M-53 272 C-55.24849977 275.0877058 -55.24849977 275.0877058 -56.5 279.5 C-58 284 -58 284 -60 287 C-59.94561254 291.28142252 -59.94561254 291.28142252 -59 295 C-55.57770311 291.57770311 -52.81117612 287.93564656 -50 284 C-50 283.34 -50 282.68 -50 282 C-48.68 281.34 -47.36 280.68 -46 280 C-49.2981424 279.7763932 -49.2981424 279.7763932 -53 282 C-50.02955696 277.01732135 -48.50369141 275.20147656 -43 273 C-39.66666667 272.33333333 -36.33333333 271.66666667 -33 271 C-33 270.67 -33 270.34 -33 270 C-34.65 270 -36.3 270 -38 270 C-38 269.34 -38 268.68 -38 268 C-44.89698258 268 -47.28718244 268.61104043 -53 272 Z M-81 275 C-81 275.66 -81 276.32 -81 277 C-82.98 277 -84.96 277 -87 277 C-87 277.33 -87 277.66 -87 278 C-83.33754034 278.68940417 -79.67047697 279.35464141 -76 280 C-75.01 280.33 -74.02 280.66 -73 281 C-73.33 279.68 -73.66 278.36 -74 277 C-76.31 276.34 -78.62 275.68 -81 275 Z M-40 276 C-40 276.33 -40 276.66 -40 277 C-38.35 277 -36.7 277 -35 277 C-35 276.67 -35 276.34 -35 276 C-36.65 276 -38.3 276 -40 276 Z M-44 277 C-44.66 277.66 -45.32 278.32 -46 279 C-44.35 278.67 -42.7 278.34 -41 278 C-41.99 277.67 -42.98 277.34 -44 277 Z M-91 280 C-90.01 281.485 -90.01 281.485 -89 283 C-84.33751106 283.69528344 -79.67081821 284.36307024 -75 285 C-75 285.66 -75 286.32 -75 287 C-74.01 287.33 -73.02 287.66 -72 288 C-73.51284221 282.87420656 -73.51284221 282.87420656 -77.375 280.6875 C-82.5539159 278.27662536 -85.28531835 279.04755306 -91 280 Z M-44 281 C-49.92813081 285.72532166 -54.501278 290.23580413 -58 297 C-57.67 297.66 -57.34 298.32 -57 299 C-55.205625 296.525 -55.205625 296.525 -53.375 294 C-49.78161351 289.0719271 -46.62265911 285.8187184 -42 282 C-42.66 281.67 -43.32 281.34 -44 281 Z M-44 286 C-48.41399452 290.47516354 -48.41399452 290.47516354 -52 295 C-52 295.66 -52 296.32 -52 297 C-53.98 297.99 -53.98 297.99 -56 299 C-56.99 302.465 -56.99 302.465 -58 306 C-52.86637864 305.4683391 -52.86637864 305.4683391 -49.9375 301.8125 C-44.91154091 296.04646345 -44.91154091 296.04646345 -43 289 C-37.82417426 284.85933941 -36.21659953 284.6543789 -30 284 C-30.66 283.34 -31.32 282.68 -32 282 C-37.73391282 282 -39.35444322 282.77173173 -44 286 Z M-87 285 C-87 285.33 -87 285.66 -87 286 C-85.535625 286.474375 -84.07125 286.94875 -82.5625 287.4375 C-80.3040625 288.2109375 -80.3040625 288.2109375 -78 289 C-77.67 289.66 -77.34 290.32 -77 291 C-78.32 290.67 -79.64 290.34 -81 290 C-79.35 291.65 -77.7 293.3 -76 295 C-74.68 295 -73.36 295 -72 295 C-71.67 293.68 -71.34 292.36 -71 291 C-74.8509288 286.5527864 -74.8509288 286.5527864 -81 285 C-82.98 285 -84.96 285 -87 285 Z M-35 285 C-31 286 -31 286 -31 286 Z M-28 285 C-28 285.66 -28 286.32 -28 287 C-27.34 286.67 -26.68 286.34 -26 286 C-26.66 285.67 -27.32 285.34 -28 285 Z M-41 288 C-40.67 288.66 -40.34 289.32 -40 290 C-38.35 288.68 -36.7 287.36 -35 286 C-38.18490007 285.7226499 -38.18490007 285.7226499 -41 288 Z M-85 288 C-83.02 288.99 -83.02 288.99 -81 290 C-81.33 289.34 -81.66 288.68 -82 288 C-82.99 288 -83.98 288 -85 288 Z M-84 294 C-83.67 294.66 -83.34 295.32 -83 296 C-82.34 295.67 -81.68 295.34 -81 295 C-81.99 294.67 -82.98 294.34 -84 294 Z M-81 296 C-78.95603725 300.71000111 -77.65652716 302.67173642 -73 305 C-73.87345723 300.89153477 -73.87345723 300.89153477 -76 297 C-77.65 296.67 -79.3 296.34 -81 296 Z " transform="translate(361,111)" style="fill: #128ba6;"/><path d="M0 0 C2.57361328 0.27553711 2.57361328 0.27553711 5.19921875 0.55664062 C6.97425781 0.75580078 8.74929688 0.95496094 10.578125 1.16015625 C14.11441 1.54586336 17.65086098 1.9300526 21.1875 2.3125 C22.74952148 2.48644287 24.31154297 2.66038574 25.92089844 2.83959961 C29.83728431 3.28770306 29.83728431 3.28770306 33.828125 3.22265625 C31.435625 2.74828125 29.043125 2.27390625 26.578125 1.78515625 C24.020625 1.26953125 21.463125 0.75390625 18.828125 0.22265625 C18.828125 -0.10734375 18.828125 -0.43734375 18.828125 -0.77734375 C38.14393348 -1.81084642 58.40921698 5.95378593 76.828125 11.22265625 C79.14650391 11.85107422 79.14650391 11.85107422 81.51171875 12.4921875 C88.51223581 14.77082751 95.1727711 17.73326098 101.890625 20.72265625 C113.61302705 26.15394904 113.61302705 26.15394904 125.828125 30.22265625 C127.148125 29.56265625 128.468125 28.90265625 129.828125 28.22265625 C145.28741167 35.47474978 158.94679596 44.74870739 172.078125 55.53515625 C180.07527761 62.05457414 188.23729209 68.49543431 196.828125 74.22265625 C196.828125 74.88265625 196.828125 75.54265625 196.828125 76.22265625 C198.148125 76.88265625 199.468125 77.54265625 200.828125 78.22265625 C201.488125 78.55265625 202.148125 78.88265625 202.828125 79.22265625 C202.828125 79.88265625 202.828125 80.54265625 202.828125 81.22265625 C204.148125 81.88265625 205.468125 82.54265625 206.828125 83.22265625 C210.53717659 86.84644228 214.20242288 90.51547767 217.828125 94.22265625 C222.42622315 98.99949755 222.42622315 98.99949755 226.23828125 101.96875 C230.37240283 105.71600057 233.16796433 109.64814401 236.265625 114.28515625 C237.38710938 115.96351562 238.50859375 117.641875 239.6640625 119.37109375 C249.34986413 134.22265625 249.34986413 134.22265625 252.953125 141.53515625 C256.09174629 147.70777811 260.51662895 152.83328619 264.828125 158.22265625 C266.2550924 160.65119322 267.62733836 163.11243643 268.953125 165.59765625 C269.97792969 167.49644531 269.97792969 167.49644531 271.0234375 169.43359375 C272.828125 173.22265625 272.828125 173.22265625 274.828125 180.22265625 C275.85489931 182.93667051 276.89832033 185.64441264 277.953125 188.34765625 C284.214032 205.18778975 288.91128651 222.50509144 291.828125 240.22265625 C292.488125 241.87265625 293.148125 243.52265625 293.828125 245.22265625 C299.69244076 284.07314584 301.78919244 326.5795187 293.828125 365.22265625 C293.51617188 367.10210937 293.20421875 368.9815625 292.8828125 370.91796875 C292.36074219 373.04878906 292.36074219 373.04878906 291.828125 375.22265625 C290.838125 375.22265625 289.848125 375.22265625 288.828125 375.22265625 C285.16693313 384.37563593 283.15378452 393.97301575 280.9765625 403.5625 C279.79485993 408.35764004 278.62046786 412.18886391 275.59765625 416.1328125 C271.68172275 421.9155803 269.19576456 428.24393294 266.515625 434.66015625 C259.83597829 450.34958083 252.72992211 465.6421265 243.828125 480.22265625 C243.168125 479.89265625 242.508125 479.56265625 241.828125 479.22265625 C243.47247939 475.75390867 245.24830536 472.34724825 247.078125 468.97265625 C251.26032608 461.24153501 251.26032608 461.24153501 254.828125 453.22265625 C249.31804997 458.73273128 245.32073413 465.05982586 241.16796875 471.6171875 C237.65174932 477.0353353 233.78574531 482.11940901 229.828125 487.22265625 C228.86132812 488.48078125 227.89453125 489.73890625 226.8984375 491.03515625 C219.2891045 500.70961386 210.96828822 509.00428349 201.828125 517.22265625 C200.508125 518.54265625 199.188125 519.86265625 197.828125 521.22265625 C197.168125 521.22265625 196.508125 521.22265625 195.828125 521.22265625 C195.828125 521.88265625 195.828125 522.54265625 195.828125 523.22265625 C195.168125 523.22265625 194.508125 523.22265625 193.828125 523.22265625 C193.828125 523.88265625 193.828125 524.54265625 193.828125 525.22265625 C193.168125 525.22265625 192.508125 525.22265625 191.828125 525.22265625 C191.828125 525.88265625 191.828125 526.54265625 191.828125 527.22265625 C191.168125 527.22265625 190.508125 527.22265625 189.828125 527.22265625 C189.168125 528.87265625 188.508125 530.52265625 187.828125 532.22265625 C184.49479167 535.55598958 181.16145833 538.88932292 177.828125 542.22265625 C173.6882976 547.59825303 169.94091668 553.04339804 166.328125 558.78515625 C162.80954852 564.25151614 158.95310866 569.20392613 154.828125 574.22265625 C153.838125 575.54265625 152.848125 576.86265625 151.828125 578.22265625 C151.168125 578.22265625 150.508125 578.22265625 149.828125 578.22265625 C149.828125 578.88265625 149.828125 579.54265625 149.828125 580.22265625 C149.168125 580.22265625 148.508125 580.22265625 147.828125 580.22265625 C147.828125 580.88265625 147.828125 581.54265625 147.828125 582.22265625 C147.168125 582.22265625 146.508125 582.22265625 145.828125 582.22265625 C145.168125 583.54265625 144.508125 584.86265625 143.828125 586.22265625 C141.79484197 588.07444679 139.67737335 589.83509386 137.515625 591.53515625 C136.38511719 592.43878906 135.25460937 593.34242188 134.08984375 594.2734375 C124.15299156 601.14999424 115.57157091 604.98475066 103.578125 606.53515625 C88.65507057 608.7446015 74.20622604 612.12569047 59.58886719 615.83325195 C57.91727539 616.25566162 56.24568359 616.67807129 54.5234375 617.11328125 C53.03859863 617.49516602 51.55375977 617.87705078 50.02392578 618.27050781 C45.95003315 619.19499177 41.98944202 619.86120427 37.828125 620.22265625 C37.498125 619.89265625 37.168125 619.56265625 36.828125 619.22265625 C36.828125 610.38251315 39.32187144 604.73307885 43.828125 597.22265625 C44.158125 595.90265625 44.488125 594.58265625 44.828125 593.22265625 C51.59346452 588.44181632 58.68114601 584.80912612 66.11328125 581.1875 C73.81032724 577.11640207 81.65124342 572.39953783 87.828125 566.22265625 C88.158125 565.23265625 88.488125 564.24265625 88.828125 563.22265625 C84.79403792 562.96159052 80.74540282 562.92789127 76.703125 562.97265625 C73.02736328 562.99779297 73.02736328 562.99779297 69.27734375 563.0234375 C60.906042 563.24731605 52.60835707 563.84880738 44.27734375 564.6875 C43.13910156 564.53410156 42.00085938 564.38070312 40.828125 564.22265625 C41.488125 561.91265625 42.148125 559.60265625 42.828125 557.22265625 C47.93810789 554.29069885 53.05005699 552.85607665 58.703125 551.16015625 C64.74521396 549.76648676 64.74521396 549.76648676 67.828125 546.22265625 C70.54116565 544.85506229 73.29710574 543.57110819 76.078125 542.34765625 C77.54765625 541.69023438 79.0171875 541.0328125 80.53125 540.35546875 C81.61921875 539.98164062 82.7071875 539.6078125 83.828125 539.22265625 C82.828125 542.22265625 82.828125 542.22265625 76.765625 545.91015625 C75.46625 546.67328125 74.166875 547.43640625 72.828125 548.22265625 C84.5026458 543.28742833 84.5026458 543.28742833 94.828125 536.22265625 C93.178125 536.22265625 91.528125 536.22265625 89.828125 536.22265625 C90.488125 535.56265625 91.148125 534.90265625 91.828125 534.22265625 C90.508125 533.56265625 89.188125 532.90265625 87.828125 532.22265625 C90.76171875 530.71484375 90.76171875 530.71484375 95.265625 529.09765625 C96.72871094 528.55882812 98.19179688 528.02 99.69921875 527.46484375 C103.828125 526.22265625 103.828125 526.22265625 108.828125 526.22265625 C112.20675951 523.95541467 115.53580361 521.61350869 118.828125 519.22265625 C123.828125 516.22265625 123.828125 516.22265625 127.828125 514.22265625 C128.488125 514.55265625 129.148125 514.88265625 129.828125 515.22265625 C120.01122359 521.9268816 120.01122359 521.9268816 114.828125 523.22265625 C114.498125 524.21265625 114.168125 525.20265625 113.828125 526.22265625 C124.06897748 524.64714048 129.74811548 520.52742797 136.828125 513.22265625 C138.478125 511.90265625 140.128125 510.58265625 141.828125 509.22265625 C147.52932195 503.46580588 147.52932195 503.46580588 149.828125 496.22265625 C148.838125 497.21265625 147.848125 498.20265625 146.828125 499.22265625 C146.168125 498.89265625 145.508125 498.56265625 144.828125 498.22265625 C156.43189858 484.92076946 156.43189858 484.92076946 163.828125 481.22265625 C166.53745003 478.59934154 169.20216378 475.92941628 171.828125 473.22265625 C173.478125 471.57265625 175.128125 469.92265625 176.828125 468.22265625 C177.488125 467.23265625 178.148125 466.24265625 178.828125 465.22265625 C179.488125 465.22265625 180.148125 465.22265625 180.828125 465.22265625 C180.828125 463.57265625 180.828125 461.92265625 180.828125 460.22265625 C183.41337771 456.49813964 186.08881235 452.83537293 188.828125 449.22265625 C189.735625 447.69640625 190.643125 446.17015625 191.578125 444.59765625 C192.320625 443.48390625 193.063125 442.37015625 193.828125 441.22265625 C195.148125 440.89265625 196.468125 440.56265625 197.828125 440.22265625 C198.488125 438.90265625 199.148125 437.58265625 199.828125 436.22265625 C202.8150516 431.08236396 205.88885195 426.13698788 209.328125 421.28515625 C224.98331068 398.64104839 229.51936968 373.75104513 234.828125 347.22265625 C235.13878906 345.7634375 235.44945312 344.30421875 235.76953125 342.80078125 C239.6511278 324.51053573 241.18806354 306.49090691 241.53759766 287.84033203 C241.60512307 284.30042607 241.71231446 280.76131162 241.828125 277.22265625 C242.158125 277.22265625 242.488125 277.22265625 242.828125 277.22265625 C244.44084471 287.56303554 244.20804868 298.16356759 244.43359375 308.60546875 C244.51619899 311.81283073 244.65546639 315.01887981 244.828125 318.22265625 C248.16372939 280.21698194 241.674337 247.86856169 228.828125 212.22265625 C228.02375 209.83015625 227.219375 207.43765625 226.390625 204.97265625 C221.36205922 191.7266781 214.80512674 179.20960101 206.578125 167.66015625 C203.45307925 163.12883991 200.65398491 158.59995821 197.890625 153.84765625 C191.11168419 142.23245751 183.93198258 132.08516863 174.828125 122.22265625 C174.828125 121.56265625 174.828125 120.90265625 174.828125 120.22265625 C174.168125 120.22265625 173.508125 120.22265625 172.828125 120.22265625 C172.828125 119.56265625 172.828125 118.90265625 172.828125 118.22265625 C172.168125 118.22265625 171.508125 118.22265625 170.828125 118.22265625 C169.508125 116.57265625 168.188125 114.92265625 166.828125 113.22265625 C164.476875 111.39734375 164.476875 111.39734375 162.078125 109.53515625 C160.675625 108.44203125 159.273125 107.34890625 157.828125 106.22265625 C157.828125 105.56265625 157.828125 104.90265625 157.828125 104.22265625 C156.508125 103.56265625 155.188125 102.90265625 153.828125 102.22265625 C151.10300066 100.26667377 148.39746085 98.28333654 145.703125 96.28515625 C131.40306933 85.92246627 116.89558141 77.48179063 100.7890625 70.21875 C99.48195313 69.56003906 98.17484375 68.90132813 96.828125 68.22265625 C96.828125 67.56265625 96.828125 66.90265625 96.828125 66.22265625 C93.85623725 65.1419698 90.8446409 64.17167249 87.828125 63.22265625 C84.82344023 62.21569541 81.82370268 61.19389464 78.828125 60.16015625 C76.600625 59.40025391 76.600625 59.40025391 74.328125 58.625 C73.173125 58.16222656 72.018125 57.69945312 70.828125 57.22265625 C70.498125 56.56265625 70.168125 55.90265625 69.828125 55.22265625 C90.85407851 58.06560208 111.81586573 70.41530069 129.828125 81.22265625 C131.478125 81.55265625 133.128125 81.88265625 134.828125 82.22265625 C136.49875 83.39828125 138.169375 84.57390625 139.890625 85.78515625 C144.37254493 89.6035688 144.37254493 89.6035688 148.828125 89.22265625 C145.72564735 87.25775374 142.61242085 85.30844398 139.45703125 83.4296875 C135.828125 81.22265625 135.828125 81.22265625 131.140625 77.84765625 C123.6644606 72.74627349 115.80196761 68.49195647 107.828125 64.22265625 C106.52617187 63.51753906 105.22421875 62.81242187 103.8828125 62.0859375 C79.88456859 49.54476075 53.66561972 42.10773882 26.828125 39.22265625 C25.30960937 39.03703125 23.79109375 38.85140625 22.2265625 38.66015625 C-15.5425794 35.59927065 -54.35787704 39.41713906 -90.15625 52 C-94.171875 53.22265625 -94.171875 53.22265625 -97.171875 52.22265625 C-94.32182249 50.98625972 -91.40951823 49.89408485 -88.484375 48.84765625 C-86.80988281 48.24179687 -85.13539063 47.6359375 -83.41015625 47.01171875 C-78.36397797 45.28826636 -73.28943685 43.7198153 -68.171875 42.22265625 C-101.6026287 51.69302992 -133.96679575 65.26277223 -161.171875 87.22265625 C-162.945625 88.62515625 -164.719375 90.02765625 -166.546875 91.47265625 C-184.66235663 106.77017407 -201.83961827 123.31203973 -216.171875 142.22265625 C-216.831875 142.55265625 -217.491875 142.88265625 -218.171875 143.22265625 C-217.511875 141.90265625 -216.851875 140.58265625 -216.171875 139.22265625 C-216.171875 138.89265625 -216.171875 138.56265625 -216.171875 138.22265625 C-222.01739678 145.94709574 -227.20116401 153.91224881 -232.171875 162.22265625 C-233.450625 164.32640625 -234.729375 166.43015625 -236.046875 168.59765625 C-247.46682093 188.7624033 -254.91513031 210.77554324 -260.79296875 233.08984375 C-261.87108432 237.10299914 -263.08894474 241.07867343 -264.359375 245.03515625 C-274.85660846 286.66211652 -271.3987503 337.83928785 -257.171875 378.22265625 C-256.46568038 381.21359818 -255.79866344 384.21407175 -255.171875 387.22265625 C-254.759375 388.93453125 -254.346875 390.64640625 -253.921875 392.41015625 C-253.674375 393.66828125 -253.426875 394.92640625 -253.171875 396.22265625 C-263.45534043 385.93919082 -264.71518989 361.89544304 -267.171875 348.22265625 C-267.52507812 346.33933594 -267.87828125 344.45601563 -268.2421875 342.515625 C-270.43043885 330.05730325 -271.38256902 317.54948073 -271.828125 304.91796875 C-271.96429092 301.03374732 -271.96429092 301.03374732 -274.171875 297.22265625 C-273.841875 296.56265625 -273.511875 295.90265625 -273.171875 295.22265625 C-273.831875 294.56265625 -274.491875 293.90265625 -275.171875 293.22265625 C-274.511875 292.23265625 -273.851875 291.24265625 -273.171875 290.22265625 C-273.501875 289.23265625 -273.831875 288.24265625 -274.171875 287.22265625 C-276.57275648 295.27904275 -276.57275648 295.27904275 -275.171875 303.22265625 C-275.17786438 306.16044564 -275.22776953 309.09817365 -275.296875 312.03515625 C-275.45720425 368.63138087 -250.30916941 425.55330049 -214.234375 468.41015625 C-212.56375 470.32828125 -210.893125 472.24640625 -209.171875 474.22265625 C-207.521875 476.20265625 -205.871875 478.18265625 -204.171875 480.22265625 C-202.8725 481.35703125 -201.573125 482.49140625 -200.234375 483.66015625 C-196.47600214 486.95596014 -193.21128908 490.25453232 -190.171875 494.22265625 C-191.491875 493.56265625 -192.811875 492.90265625 -194.171875 492.22265625 C-194.171875 492.55265625 -194.171875 492.88265625 -194.171875 493.22265625 C-190.99384157 496.21456767 -187.74618666 499.12481982 -184.50390625 502.046875 C-181.171875 505.22265625 -181.171875 505.22265625 -176.171875 511.22265625 C-176.171875 511.88265625 -176.171875 512.54265625 -176.171875 513.22265625 C-168.83104089 519.80337562 -160.86055745 525.53603084 -152.609375 530.91015625 C-150.485 532.33328125 -148.360625 533.75640625 -146.171875 535.22265625 C-146.831875 535.55265625 -147.491875 535.88265625 -148.171875 536.22265625 C-153.32885203 533.32627189 -158.22675544 530.18514304 -163.109375 526.84765625 C-166.78570178 523.95129856 -166.78570178 523.95129856 -170.171875 524.22265625 C-170.171875 523.56265625 -170.171875 522.90265625 -170.171875 522.22265625 C-171.821875 521.89265625 -173.471875 521.56265625 -175.171875 521.22265625 C-177.55233171 518.93741781 -179.87586793 516.59272807 -182.171875 514.22265625 C-184.8634375 512.02609375 -184.8634375 512.02609375 -187.609375 509.78515625 C-192.44797944 505.81641329 -196.79378974 501.68034306 -201.171875 497.22265625 C-201.831875 496.89265625 -202.491875 496.56265625 -203.171875 496.22265625 C-203.171875 495.56265625 -203.171875 494.90265625 -203.171875 494.22265625 C-203.831875 494.22265625 -204.491875 494.22265625 -205.171875 494.22265625 C-206.30625 492.92328125 -207.440625 491.62390625 -208.609375 490.28515625 C-211.66503701 486.11116866 -211.66503701 486.11116866 -215.171875 485.22265625 C-215.831875 483.57265625 -216.491875 481.92265625 -217.171875 480.22265625 C-220.87991193 475.15381192 -220.87991193 475.15381192 -226.171875 472.22265625 C-226.171875 471.23265625 -226.171875 470.24265625 -226.171875 469.22265625 C-228.646875 467.73765625 -228.646875 467.73765625 -231.171875 466.22265625 C-259.56952143 428.57184413 -277.72531149 383.29912152 -283.49609375 336.56640625 C-283.71910156 335.46296875 -283.94210937 334.35953125 -284.171875 333.22265625 C-284.831875 334.21265625 -285.491875 335.20265625 -286.171875 336.22265625 C-287.04908757 331.21355552 -287.75134109 326.26692312 -288.359375 321.22265625 C-288.54951172 319.77246094 -288.73964844 318.32226562 -288.93554688 316.828125 C-290.30456325 305.88609748 -290.30456325 305.88609748 -289.171875 300.22265625 C-288.841875 300.22265625 -288.511875 300.22265625 -288.171875 300.22265625 C-288.171875 302.86265625 -288.171875 305.50265625 -288.171875 308.22265625 C-287.511875 308.22265625 -286.851875 308.22265625 -286.171875 308.22265625 C-285.94237041 302.32707093 -285.84805395 296.49365824 -285.859375 290.59765625 C-285.84326172 288.9115625 -285.82714844 287.22546875 -285.81054688 285.48828125 C-285.80888415 281.39796627 -285.97294872 277.30813147 -286.171875 273.22265625 C-287.161875 273.88265625 -288.151875 274.54265625 -289.171875 275.22265625 C-289.01046475 267.55566961 -288.21728346 262.32860933 -285.171875 255.22265625 C-284.48574197 251.94709397 -283.88278401 248.65312593 -283.359375 245.34765625 C-283.08480469 243.65898437 -282.81023437 241.9703125 -282.52734375 240.23046875 C-282.35138672 238.74160156 -282.35138672 238.74160156 -282.171875 237.22265625 C-282.831875 239.53265625 -283.491875 241.84265625 -284.171875 244.22265625 C-285.161875 245.21265625 -285.161875 245.21265625 -286.171875 246.22265625 C-286.501875 247.74890625 -286.831875 249.27515625 -287.171875 250.84765625 C-287.666875 253.01328125 -287.666875 253.01328125 -288.171875 255.22265625 C-288.831875 255.22265625 -289.491875 255.22265625 -290.171875 255.22265625 C-287.53342636 234.11506713 -282.54655298 210.76357153 -274.171875 191.22265625 C-273.74390625 189.70542969 -273.3159375 188.18820313 -272.875 186.625 C-270.79108928 180.01479697 -267.9407184 174.02292918 -264.921875 167.78515625 C-263.82359375 165.49707031 -262.7253125 163.20898438 -261.59375 160.8515625 C-258.4214535 154.70614337 -254.97782515 148.9909807 -251.171875 143.22265625 C-250.31980469 141.89234375 -249.46773437 140.56203125 -248.58984375 139.19140625 C-242.39409722 129.55598958 -242.39409722 129.55598958 -240.171875 126.22265625 C-239.511875 126.22265625 -238.851875 126.22265625 -238.171875 126.22265625 C-237.511875 124.57265625 -236.851875 122.92265625 -236.171875 121.22265625 C-235.181875 119.90265625 -234.191875 118.58265625 -233.171875 117.22265625 C-232.511875 117.22265625 -231.851875 117.22265625 -231.171875 117.22265625 C-230.511875 115.57265625 -229.851875 113.92265625 -229.171875 112.22265625 C-228.511875 112.22265625 -227.851875 112.22265625 -227.171875 112.22265625 C-227.171875 111.23265625 -227.171875 110.24265625 -227.171875 109.22265625 C-226.511875 109.22265625 -225.851875 109.22265625 -225.171875 109.22265625 C-225.171875 108.23265625 -225.171875 107.24265625 -225.171875 106.22265625 C-227.51943416 108.20593899 -229.8537597 110.20503738 -232.171875 112.22265625 C-231.171875 110.22265625 -230.171875 108.22265625 -229.171875 106.22265625 C-228.511875 106.22265625 -227.851875 106.22265625 -227.171875 106.22265625 C-226.181875 104.24265625 -226.181875 104.24265625 -225.171875 102.22265625 C-223.48361798 100.10603551 -221.74856459 98.02641627 -219.984375 95.97265625 C-218.99566406 94.82023437 -218.00695312 93.6678125 -216.98828125 92.48046875 C-216.05886719 91.40539062 -215.12945312 90.3303125 -214.171875 89.22265625 C-212.934375 87.77890625 -211.696875 86.33515625 -210.421875 84.84765625 C-196.90296744 69.76887474 -196.90296744 69.76887474 -189.171875 68.22265625 C-185.82897097 65.56799717 -182.49814202 62.8981319 -179.171875 60.22265625 C-172.33055495 55.58512277 -165.45125245 50.96910799 -158.15234375 47.08203125 C-156.67701172 46.16164063 -156.67701172 46.16164063 -155.171875 45.22265625 C-155.171875 44.23265625 -155.171875 43.24265625 -155.171875 42.22265625 C-135.47139553 29.80230917 -111.57853855 20.58997407 -89.140625 14.6171875 C-84.32620586 13.70347212 -84.32620586 13.70347212 -82.171875 11.22265625 C-61.13768937 5.78882496 -39.83039035 2.76969306 -18.171875 1.22265625 C-17.841875 0.89265625 -17.511875 0.56265625 -17.171875 0.22265625 C-11.2407384 -0.81608115 -5.9691441 -0.65849692 0 0 Z M-79.171875 36.22265625 C-82.39857307 37.27194475 -85.62795468 38.31300195 -88.859375 39.34765625 C-116.006705 48.37143634 -141.82065225 61.2255678 -164.171875 79.22265625 C-159.47244396 79.22265625 -156.80257378 76.42852464 -152.984375 73.78515625 C-144.58938931 68.11089096 -136.12709664 62.95673116 -127.171875 58.22265625 C-125.09712891 57.05669922 -125.09712891 57.05669922 -122.98046875 55.8671875 C-110.80532189 49.48005875 -98.14768761 45.56437485 -84.984375 41.78515625 C-83.21529785 41.27686279 -81.4462207 40.76856934 -79.62353516 40.24487305 C-17.5289161 23.00857226 50.72347815 27.4457619 109.42578125 54.328125 C110.77542969 54.97394531 112.12507813 55.61976562 113.515625 56.28515625 C116.6403125 57.73921875 116.6403125 57.73921875 119.828125 59.22265625 C120.488125 58.89265625 121.148125 58.56265625 121.828125 58.22265625 C116.52986541 55.45200674 111.21426848 52.81249357 105.828125 50.22265625 C104.44625 49.53042969 103.064375 48.83820312 101.640625 48.125 C75.774166 35.41222328 46.40749799 29.72961879 17.828125 27.22265625 C15.848125 26.72765625 15.848125 26.72765625 13.828125 26.22265625 C11.415 26.22265625 9.001875 26.22265625 6.515625 26.22265625 C-1.171875 26.22265625 -1.171875 26.22265625 -8.171875 25.22265625 C-32.51876825 24.049312 -56.3839136 27.61435636 -79.171875 36.22265625 Z M8.828125 34.22265625 C8.828125 34.88265625 8.828125 35.54265625 8.828125 36.22265625 C13.19231024 36.70756572 17.57168652 37.05740323 21.953125 37.34765625 C25.60761719 37.59902344 25.60761719 37.59902344 29.3359375 37.85546875 C33.49515139 38.09070708 37.66226408 38.22265625 41.828125 38.22265625 C37.10160042 35.85939396 33.39670791 35.59151639 28.140625 35.09765625 C26.42488281 34.93007813 24.70914062 34.7625 22.94140625 34.58984375 C18.20043765 34.24939222 13.57730564 34.00131652 8.828125 34.22265625 Z M-56.171875 38.22265625 C-57.656875 39.21265625 -57.656875 39.21265625 -59.171875 40.22265625 C-57.851875 40.22265625 -56.531875 40.22265625 -55.171875 40.22265625 C-55.501875 39.56265625 -55.831875 38.90265625 -56.171875 38.22265625 Z M77.828125 47.22265625 C82.3824996 50.25890599 87.41984395 51.86579318 92.515625 53.84765625 C100.20718307 56.88809429 107.7171699 60.01258149 115.078125 63.78515625 C121.34745191 67.36072103 121.34745191 67.36072103 126.828125 68.22265625 C114.75736484 58.56604812 93.74418963 47.22265625 77.828125 47.22265625 Z M123.828125 60.22265625 C125.808125 61.21265625 125.808125 61.21265625 127.828125 62.22265625 C127.498125 61.56265625 127.168125 60.90265625 126.828125 60.22265625 C125.838125 60.22265625 124.848125 60.22265625 123.828125 60.22265625 Z M126.828125 68.22265625 C127.818125 69.70765625 127.818125 69.70765625 128.828125 71.22265625 C129.818125 70.89265625 130.808125 70.56265625 131.828125 70.22265625 C129.353125 69.23265625 129.353125 69.23265625 126.828125 68.22265625 Z M-166.171875 80.22265625 C-165.841875 80.88265625 -165.511875 81.54265625 -165.171875 82.22265625 C-164.841875 81.56265625 -164.511875 80.90265625 -164.171875 80.22265625 C-164.831875 80.22265625 -165.491875 80.22265625 -166.171875 80.22265625 Z M149.828125 83.22265625 C150.818125 84.70765625 150.818125 84.70765625 151.828125 86.22265625 C152.488125 85.89265625 153.148125 85.56265625 153.828125 85.22265625 C152.508125 84.56265625 151.188125 83.90265625 149.828125 83.22265625 Z M155.828125 87.22265625 C155.828125 87.88265625 155.828125 88.54265625 155.828125 89.22265625 C160.74933564 94.02001188 160.74933564 94.02001188 166.828125 96.22265625 C166.828125 96.88265625 166.828125 97.54265625 166.828125 98.22265625 C170.06329762 100.71373917 173.30284948 103.20020389 176.59375 105.6171875 C179.828125 108.22265625 179.828125 108.22265625 183.828125 113.22265625 C184.488125 113.22265625 185.148125 113.22265625 185.828125 113.22265625 C185.828125 113.88265625 185.828125 114.54265625 185.828125 115.22265625 C186.488125 115.22265625 187.148125 115.22265625 187.828125 115.22265625 C188.488125 116.54265625 189.148125 117.86265625 189.828125 119.22265625 C190.488125 120.21265625 191.148125 121.20265625 191.828125 122.22265625 C192.488125 122.22265625 193.148125 122.22265625 193.828125 122.22265625 C194.488125 123.54265625 195.148125 124.86265625 195.828125 126.22265625 C197.230625 127.93453125 198.633125 129.64640625 200.078125 131.41015625 C204.828125 137.22265625 204.828125 137.22265625 208.265625 142.41015625 C209.5340625 144.29734375 209.5340625 144.29734375 210.828125 146.22265625 C211.488125 146.22265625 212.148125 146.22265625 212.828125 146.22265625 C213.488125 147.87265625 214.148125 149.52265625 214.828125 151.22265625 C217.24264313 154.53021533 219.6578044 157.83730953 222.078125 161.140625 C225.97244865 166.92126167 229.0323113 173.04590195 232.11328125 179.2890625 C232.67917969 180.25714844 233.24507812 181.22523438 233.828125 182.22265625 C234.323125 180.73765625 234.323125 180.73765625 234.828125 179.22265625 C233.11075701 175.64382604 231.2521441 172.13226353 229.328125 168.66015625 C227.76578125 165.81197266 227.76578125 165.81197266 226.171875 162.90625 C221.72434868 155.3464944 216.68789272 148.37720148 211.453125 141.34765625 C207.828125 136.22265625 207.828125 136.22265625 206.828125 132.22265625 C206.168125 132.22265625 205.508125 132.22265625 204.828125 132.22265625 C204.168125 130.57265625 203.508125 128.92265625 202.828125 127.22265625 C201.838125 127.22265625 200.848125 127.22265625 199.828125 127.22265625 C199.168125 125.90265625 198.508125 124.58265625 197.828125 123.22265625 C196.178125 121.24265625 194.528125 119.26265625 192.828125 117.22265625 C192.168125 115.90265625 191.508125 114.58265625 190.828125 113.22265625 C186.3882203 106.82451622 186.3882203 106.82451622 179.828125 105.22265625 C176.47886954 102.24044248 173.14814306 99.23738529 169.828125 96.22265625 C163.08484189 90.49543729 163.08484189 90.49543729 155.828125 87.22265625 Z M-186.171875 92.22265625 C-186.501875 92.88265625 -186.831875 93.54265625 -187.171875 94.22265625 C-186.511875 94.22265625 -185.851875 94.22265625 -185.171875 94.22265625 C-185.501875 93.56265625 -185.831875 92.90265625 -186.171875 92.22265625 Z M-190.171875 95.22265625 C-192.52514538 97.27774827 -194.7822043 99.44391417 -196.984375 101.66015625 C-198.20769531 102.87574219 -199.43101562 104.09132813 -200.69140625 105.34375 C-201.50996094 106.29378906 -202.32851562 107.24382812 -203.171875 108.22265625 C-199.89065633 108.55012152 -199.89065633 108.55012152 -197.18359375 105.6328125 C-196.08660156 104.52808594 -194.98960937 103.42335938 -193.859375 102.28515625 C-192.74949219 101.18300781 -191.63960937 100.08085938 -190.49609375 98.9453125 C-189.72910156 98.04683594 -188.96210938 97.14835937 -188.171875 96.22265625 C-188.831875 95.89265625 -189.491875 95.56265625 -190.171875 95.22265625 Z M-223.171875 102.22265625 C-222.171875 104.22265625 -222.171875 104.22265625 -222.171875 104.22265625 Z M-204.171875 109.22265625 C-204.501875 109.88265625 -204.831875 110.54265625 -205.171875 111.22265625 C-204.511875 111.22265625 -203.851875 111.22265625 -203.171875 111.22265625 C-203.501875 110.56265625 -203.831875 109.90265625 -204.171875 109.22265625 Z M-206.171875 111.22265625 C-206.501875 111.88265625 -206.831875 112.54265625 -207.171875 113.22265625 C-206.511875 113.22265625 -205.851875 113.22265625 -205.171875 113.22265625 C-205.501875 112.56265625 -205.831875 111.90265625 -206.171875 111.22265625 Z M-211.171875 117.22265625 C-223.36631516 128.74692783 -232.70527834 142.81458825 -241.171875 157.22265625 C-242.28046875 159.08277344 -243.3890625 160.94289062 -244.53125 162.859375 C-262.99134904 195.12493438 -275.76721703 232.99986846 -278.171875 270.22265625 C-277.511875 269.89265625 -276.851875 269.56265625 -276.171875 269.22265625 C-275.29058954 265.07401995 -274.51948922 260.90185186 -273.796875 256.72265625 C-271.14279828 241.89562942 -268.28686924 227.43097357 -263.171875 213.22265625 C-262.66398437 211.77503906 -262.15609375 210.32742187 -261.6328125 208.8359375 C-253.83967877 187.39652917 -244.13857364 166.05572401 -231.171875 147.22265625 C-230.17027344 145.76472656 -229.16867188 144.30679688 -228.13671875 142.8046875 C-223.00530751 135.44775714 -217.68713694 128.29657917 -212.171875 121.22265625 C-211.511875 119.90265625 -210.851875 118.58265625 -210.171875 117.22265625 C-210.501875 117.22265625 -210.831875 117.22265625 -211.171875 117.22265625 Z M195.828125 119.22265625 C195.828125 119.88265625 195.828125 120.54265625 195.828125 121.22265625 C196.488125 120.89265625 197.148125 120.56265625 197.828125 120.22265625 C197.168125 119.89265625 196.508125 119.56265625 195.828125 119.22265625 Z M-216.171875 129.22265625 C-215.171875 131.22265625 -215.171875 131.22265625 -215.171875 131.22265625 Z M-211.171875 130.22265625 C-210.171875 132.22265625 -210.171875 132.22265625 -210.171875 132.22265625 Z M-218.171875 131.22265625 C-217.841875 131.88265625 -217.511875 132.54265625 -217.171875 133.22265625 C-216.841875 132.56265625 -216.511875 131.90265625 -216.171875 131.22265625 C-216.831875 131.22265625 -217.491875 131.22265625 -218.171875 131.22265625 Z M-219.171875 133.22265625 C-230.54240296 146.59974797 -239.91088452 162.24847719 -247.171875 178.22265625 C-246.841875 179.21265625 -246.511875 180.20265625 -246.171875 181.22265625 C-244.33564085 178.03192569 -242.63608316 174.76269842 -240.984375 171.47265625 C-237.41557714 164.38388129 -233.67430939 157.75824996 -229.171875 151.22265625 C-227.975625 149.32515625 -226.779375 147.42765625 -225.546875 145.47265625 C-222.171875 140.22265625 -222.171875 140.22265625 -218.171875 135.22265625 C-218.501875 134.56265625 -218.831875 133.90265625 -219.171875 133.22265625 Z M-214.171875 134.22265625 C-213.171875 136.22265625 -213.171875 136.22265625 -213.171875 136.22265625 Z M206.828125 144.22265625 C207.828125 146.22265625 207.828125 146.22265625 207.828125 146.22265625 Z M207.828125 146.22265625 C208.488125 147.54265625 209.148125 148.86265625 209.828125 150.22265625 C209.828125 149.23265625 209.828125 148.24265625 209.828125 147.22265625 C209.168125 146.89265625 208.508125 146.56265625 207.828125 146.22265625 Z M210.828125 150.22265625 C211.488125 151.54265625 212.148125 152.86265625 212.828125 154.22265625 C212.828125 153.23265625 212.828125 152.24265625 212.828125 151.22265625 C212.168125 150.89265625 211.508125 150.56265625 210.828125 150.22265625 Z M213.828125 154.22265625 C214.158125 155.21265625 214.488125 156.20265625 214.828125 157.22265625 C214.828125 156.23265625 214.828125 155.24265625 214.828125 154.22265625 C214.498125 154.22265625 214.168125 154.22265625 213.828125 154.22265625 Z M215.828125 157.22265625 C216.488125 158.87265625 217.148125 160.52265625 217.828125 162.22265625 C218.488125 162.55265625 219.148125 162.88265625 219.828125 163.22265625 C219.168125 161.57265625 218.508125 159.92265625 217.828125 158.22265625 C217.168125 157.89265625 216.508125 157.56265625 215.828125 157.22265625 Z M216.828125 163.22265625 C217.828125 165.22265625 217.828125 165.22265625 217.828125 165.22265625 Z M219.828125 163.22265625 C219.828125 171.08240017 222.17758523 174.52151913 226.05859375 181.140625 C245.39601077 216.62437611 255.40152039 255.821614 258.3984375 295.859375 C258.54023437 297.29925781 258.68203125 298.73914063 258.828125 300.22265625 C259.158125 300.22265625 259.488125 300.22265625 259.828125 300.22265625 C260.84249957 272.97608357 259.69649076 243.14622434 247.828125 218.22265625 C246.84838223 215.60557163 245.89090596 212.98006857 244.953125 210.34765625 C241.8454798 201.96667528 237.96376826 194.13717074 233.828125 186.22265625 C232.9721875 184.54300781 232.11625 182.86335938 231.234375 181.1328125 C230.3578125 179.42996094 229.48125 177.72710937 228.578125 175.97265625 C227.76859375 174.4 226.9590625 172.82734375 226.125 171.20703125 C223.89925783 166.94784706 223.89925783 166.94784706 219.828125 163.22265625 Z M218.828125 166.22265625 C219.828125 168.22265625 219.828125 168.22265625 219.828125 168.22265625 Z M234.828125 182.22265625 C235.828125 184.22265625 235.828125 184.22265625 235.828125 184.22265625 Z M235.828125 184.22265625 C236.488125 185.54265625 237.148125 186.86265625 237.828125 188.22265625 C237.498125 186.90265625 237.168125 185.58265625 236.828125 184.22265625 C236.498125 184.22265625 236.168125 184.22265625 235.828125 184.22265625 Z M237.828125 188.22265625 C238.828125 190.22265625 238.828125 190.22265625 238.828125 190.22265625 Z M238.828125 190.22265625 C239.828125 192.22265625 239.828125 192.22265625 239.828125 192.22265625 Z M-270.171875 217.22265625 C-269.171875 219.22265625 -269.171875 219.22265625 -269.171875 219.22265625 Z M-263.171875 223.22265625 C-262.171875 225.22265625 -262.171875 225.22265625 -262.171875 225.22265625 Z M-272.171875 224.22265625 C-271.171875 226.22265625 -271.171875 226.22265625 -271.171875 226.22265625 Z M-273.171875 226.22265625 C-272.171875 229.22265625 -272.171875 229.22265625 -272.171875 229.22265625 Z M-264.171875 226.22265625 C-263.171875 230.22265625 -263.171875 230.22265625 -263.171875 230.22265625 Z M-265.171875 230.22265625 C-268.18163096 240.29879575 -270.171875 249.68873805 -270.171875 260.22265625 C-267.77866799 255.43624223 -267.0325077 251.04551445 -266.046875 245.78515625 C-265.69367188 243.93019531 -265.34046875 242.07523438 -264.9765625 240.1640625 C-264.03793447 235.23457364 -264.03793447 235.23457364 -264.171875 230.22265625 C-264.501875 230.22265625 -264.831875 230.22265625 -265.171875 230.22265625 Z M-274.171875 231.22265625 C-273.171875 233.22265625 -273.171875 233.22265625 -273.171875 233.22265625 Z M-279.171875 251.22265625 C-278.171875 253.22265625 -278.171875 253.22265625 -278.171875 253.22265625 Z M-272.171875 257.22265625 C-271.171875 259.22265625 -271.171875 259.22265625 -271.171875 259.22265625 Z M-281.171875 260.22265625 C-280.171875 262.22265625 -280.171875 262.22265625 -280.171875 262.22265625 Z M-271.171875 260.22265625 C-272.45106358 266.61859917 -272.2935055 272.71542475 -272.171875 279.22265625 C-271.841875 279.22265625 -271.511875 279.22265625 -271.171875 279.22265625 C-270.71109298 276.25284178 -270.32947573 273.27062498 -269.984375 270.28515625 C-269.78457031 268.62613281 -269.58476562 266.96710938 -269.37890625 265.2578125 C-269.31058594 263.92621094 -269.24226563 262.59460938 -269.171875 261.22265625 C-269.831875 260.89265625 -270.491875 260.56265625 -271.171875 260.22265625 Z M-281.171875 263.22265625 C-280.171875 265.22265625 -280.171875 265.22265625 -280.171875 265.22265625 Z M-281.171875 266.22265625 C-280.171875 268.22265625 -280.171875 268.22265625 -280.171875 268.22265625 Z M-278.171875 271.22265625 C-277.171875 273.22265625 -277.171875 273.22265625 -277.171875 273.22265625 Z M-282.171875 273.22265625 C-281.171875 275.22265625 -281.171875 275.22265625 -281.171875 275.22265625 Z M-274.171875 277.22265625 C-273.171875 279.22265625 -273.171875 279.22265625 -273.171875 279.22265625 Z M-279.171875 280.22265625 C-279.27300504 282.88773035 -279.30150519 285.5556681 -279.296875 288.22265625 C-279.29945313 289.70765625 -279.30203125 291.19265625 -279.3046875 292.72265625 C-279.26085937 293.87765625 -279.21703125 295.03265625 -279.171875 296.22265625 C-278.841875 296.22265625 -278.511875 296.22265625 -278.171875 296.22265625 C-278.07074496 293.55758215 -278.04224481 290.8896444 -278.046875 288.22265625 C-278.04300781 285.99515625 -278.04300781 285.99515625 -278.0390625 283.72265625 C-278.08289063 282.56765625 -278.12671875 281.41265625 -278.171875 280.22265625 C-278.501875 280.22265625 -278.831875 280.22265625 -279.171875 280.22265625 Z M-274.171875 280.22265625 C-274.171875 281.87265625 -274.171875 283.52265625 -274.171875 285.22265625 C-273.511875 284.23265625 -272.851875 283.24265625 -272.171875 282.22265625 C-272.831875 281.56265625 -273.491875 280.90265625 -274.171875 280.22265625 Z M-281.171875 334.22265625 C-280.171875 336.22265625 -280.171875 336.22265625 -280.171875 336.22265625 Z M-279.171875 347.22265625 C-278.171875 349.22265625 -278.171875 349.22265625 -278.171875 349.22265625 Z M-271.171875 380.22265625 C-270.171875 383.22265625 -270.171875 383.22265625 -270.171875 383.22265625 Z M235.828125 380.22265625 C236.828125 382.22265625 236.828125 382.22265625 236.828125 382.22265625 Z M234.828125 382.22265625 C233.17261547 385.53367531 231.68909012 388.9304489 230.265625 392.34765625 C229.43933594 394.30960937 228.61304688 396.2715625 227.76171875 398.29296875 C225.70640826 402.65041614 225.70640826 402.65041614 225.828125 405.22265625 C224.343125 405.71765625 224.343125 405.71765625 222.828125 406.22265625 C223.488125 406.22265625 224.148125 406.22265625 224.828125 406.22265625 C221.75932827 414.63709891 217.78309363 421.79020331 212.828125 429.22265625 C209.34757099 434.56350636 206.05473701 439.76943223 203.203125 445.47265625 C201.04325272 449.79240081 198.90936366 453.50936864 195.828125 457.22265625 C194.508125 457.55265625 193.188125 457.88265625 191.828125 458.22265625 C189.10020965 461.16707282 186.43700672 464.17227147 183.828125 467.22265625 C182.178125 468.87265625 180.528125 470.52265625 178.828125 472.22265625 C176.77441672 474.50885981 174.7643549 476.83614033 172.828125 479.22265625 C172.828125 479.88265625 172.828125 480.54265625 172.828125 481.22265625 C172.168125 481.22265625 171.508125 481.22265625 170.828125 481.22265625 C168.95398066 483.44288671 167.15295462 485.72517041 165.390625 488.03515625 C162.64001246 491.62816678 160.02835606 495.02242519 156.828125 498.22265625 C156.828125 498.88265625 156.828125 499.54265625 156.828125 500.22265625 C156.168125 500.22265625 155.508125 500.22265625 154.828125 500.22265625 C154.044375 501.33640625 153.260625 502.45015625 152.453125 503.59765625 C149.828125 507.22265625 149.828125 507.22265625 145.828125 509.22265625 C145.828125 509.88265625 145.828125 510.54265625 145.828125 511.22265625 C145.168125 511.22265625 144.508125 511.22265625 143.828125 511.22265625 C143.828125 511.88265625 143.828125 512.54265625 143.828125 513.22265625 C143.168125 513.22265625 142.508125 513.22265625 141.828125 513.22265625 C137.86130426 518.07099271 134.30511913 523.00716506 130.828125 528.22265625 C129.508125 529.87265625 128.188125 531.52265625 126.828125 533.22265625 C125.838125 535.20265625 125.838125 535.20265625 124.828125 537.22265625 C125.158125 538.21265625 125.488125 539.20265625 125.828125 540.22265625 C130.03045846 535.20717124 130.03045846 535.20717124 131.828125 529.22265625 C132.488125 529.22265625 133.148125 529.22265625 133.828125 529.22265625 C136.17587733 526.56867536 138.50477675 523.89802696 140.828125 521.22265625 C152.02717148 509.62313301 152.02717148 509.62313301 154.828125 508.22265625 C154.828125 507.56265625 154.828125 506.90265625 154.828125 506.22265625 C156.808125 505.23265625 156.808125 505.23265625 158.828125 504.22265625 C161.12932277 502.11044573 163.37430144 499.93627459 165.578125 497.72265625 C166.74859375 496.55734375 167.9190625 495.39203125 169.125 494.19140625 C170.01703125 493.21171875 170.9090625 492.23203125 171.828125 491.22265625 C171.828125 490.56265625 171.828125 489.90265625 171.828125 489.22265625 C172.488125 489.22265625 173.148125 489.22265625 173.828125 489.22265625 C173.828125 488.56265625 173.828125 487.90265625 173.828125 487.22265625 C174.488125 487.22265625 175.148125 487.22265625 175.828125 487.22265625 C178.20090508 484.59102743 180.53209023 481.92150413 182.828125 479.22265625 C183.818125 478.23265625 184.808125 477.24265625 185.828125 476.22265625 C185.828125 475.56265625 185.828125 474.90265625 185.828125 474.22265625 C186.488125 474.22265625 187.148125 474.22265625 187.828125 474.22265625 C199.47535188 460.21222391 208.92141853 444.61460868 216.828125 428.22265625 C218.82213735 424.88573763 220.82185109 421.5522172 222.828125 418.22265625 C228.34501162 408.016416 232.16729655 397.20514161 235.828125 386.22265625 C235.333125 384.24265625 235.333125 384.24265625 234.828125 382.22265625 Z M-270.171875 384.22265625 C-269.171875 386.22265625 -269.171875 386.22265625 -269.171875 386.22265625 Z M-269.171875 387.22265625 C-268.171875 390.22265625 -268.171875 390.22265625 -268.171875 390.22265625 Z M-268.171875 390.22265625 C-267.171875 392.22265625 -267.171875 392.22265625 -267.171875 392.22265625 Z M-267.171875 393.22265625 C-266.171875 395.22265625 -266.171875 395.22265625 -266.171875 395.22265625 Z M-266.171875 396.22265625 C-265.171875 398.22265625 -265.171875 398.22265625 -265.171875 398.22265625 Z M236.828125 415.22265625 C237.488125 416.54265625 238.148125 417.86265625 238.828125 419.22265625 C238.828125 418.23265625 238.828125 417.24265625 238.828125 416.22265625 C238.168125 415.89265625 237.508125 415.56265625 236.828125 415.22265625 Z M239.828125 419.22265625 C240.828125 421.22265625 240.828125 421.22265625 240.828125 421.22265625 Z M243.828125 428.22265625 C244.828125 430.22265625 244.828125 430.22265625 244.828125 430.22265625 Z M244.828125 430.22265625 C244.76250146 433.22258955 244.86177634 436.22595192 245.015625 439.22265625 C245.09167969 440.95515625 245.16773438 442.68765625 245.24609375 444.47265625 C245.43816406 445.71015625 245.63023437 446.94765625 245.828125 448.22265625 C246.818125 447.23265625 247.808125 446.24265625 248.828125 445.22265625 C248.498125 444.89265625 248.168125 444.56265625 247.828125 444.22265625 C247.68375 442.44890625 247.539375 440.67515625 247.390625 438.84765625 C247.29095583 433.408651 247.29095583 433.408651 244.828125 430.22265625 Z M-201.171875 486.22265625 C-200.511875 486.88265625 -199.851875 487.54265625 -199.171875 488.22265625 C-199.171875 487.56265625 -199.171875 486.90265625 -199.171875 486.22265625 C-199.831875 486.22265625 -200.491875 486.22265625 -201.171875 486.22265625 Z M-199.171875 488.22265625 C-198.511875 488.88265625 -197.851875 489.54265625 -197.171875 490.22265625 C-197.171875 489.56265625 -197.171875 488.90265625 -197.171875 488.22265625 C-197.831875 488.22265625 -198.491875 488.22265625 -199.171875 488.22265625 Z M88.828125 568.22265625 C87.343125 570.20265625 87.343125 570.20265625 85.828125 572.22265625 C87.148125 571.56265625 88.468125 570.90265625 89.828125 570.22265625 C89.498125 569.56265625 89.168125 568.90265625 88.828125 568.22265625 Z M74.828125 578.22265625 C73.838125 579.21265625 72.848125 580.20265625 71.828125 581.22265625 C73.808125 580.56265625 75.788125 579.90265625 77.828125 579.22265625 C76.838125 578.89265625 75.848125 578.56265625 74.828125 578.22265625 Z M108.828125 583.22265625 C109.828125 585.22265625 109.828125 585.22265625 109.828125 585.22265625 Z " transform="translate(314.171875,3.77734375)" style="fill: #128ba6;"/></svg>